<?xml version="1.0" encoding="UTF-8"?><svg id="Layer_1" xmlns="http://www.w3.org/2000/svg" viewBox="0 0 200 180"><defs><style>.cls-1{fill:#4177be;stroke-width:0px;}</style></defs><path class="cls-1" d="m96.61,41.16c11.37,0,20.58-9.21,20.58-20.58S107.97,0,96.61,0s-20.58,9.21-20.58,20.58,9.21,20.58,20.58,20.58Z"/><path class="cls-1" d="m129.45,53.89c-.92-4.49-4.46-8.03-8.95-8.95-.75-.15-1.52-.23-2.32-.23h-43.16c-.79,0-1.57.08-2.32.23-2.62.54-4.91,1.96-6.55,3.95-.23.28-.46.58-.66.89-.41.61-.77,1.27-1.06,1.95-.58,1.38-.9,2.89-.9,4.48v50.98c0,6.35,5.15,11.5,11.5,11.5h1.11c.82,0,1.48.66,1.48,1.48v48.34c0,5.16,3.4,9.53,8.08,10.98.36.11.73.21,1.1.28.75.15,1.52.23,2.32.23h7.5v-38.89s7.5,0,7.5,0h0c.79,0,1.57-.08,2.32-.23.37-.08.74-.17,1.1-.28,4.68-1.46,8.08-5.82,8.08-10.98v-9.45c0-.82.66-1.48,1.48-1.48h1.11c6.35,0,11.5-5.15,11.5-11.5v-50.98c0-.79-.08-1.57-.23-2.32Z"/><path class="cls-1" d="m104.83,77.98c.13,1.34,1.31,2.31,2.65,2.18.83.06,1.66.1,2.48.14l9.25,37.11-1.56.15.37,3.88,1.86-.18,5.18,29.78,1.9-.18,1.83,18.93-.91.09-.73,9.26s1.61-.15,3.36-.32c1.74-.17,3.36-.32,3.36-.32l-2.49-8.95-.9.09-1.83-18.93,1.9-.18-.61-30.22,1.87-.18-.37-3.88-1.56.15,1.99-38.19c.8-.19,1.61-.39,2.41-.61,1.33-.13,2.31-1.31,2.18-2.65-.13-1.33-1.31-2.31-2.65-2.18-4.47.97-8.91,1.67-13.32,2.11-4.41.41-8.9.57-13.48.47-1.33.13-2.31,1.32-2.18,2.65Zm22.53,67.7c1.6-.15,1.84,2.33.24,2.48-1.6.15-1.84-2.33-.24-2.48Zm-5.24-26.6l5.22-.5.61,24.91-1.23-12.75-1.68.16,1.23,12.75-4.16-24.56Zm-8.88-38.71c2.6,0,5.18-.1,7.75-.33,2.57-.26,5.13-.65,7.67-1.15l-1.22,37.72s-1.03.1-2.9.28c-1.87.18-2.9.28-2.9.28l-8.4-36.8Z"/></svg>