<?xml version="1.0" encoding="UTF-8"?><svg id="Layer_1" xmlns="http://www.w3.org/2000/svg" viewBox="0 0 200 180"><defs><style>.cls-1{fill:#4177be;stroke-width:0px;}</style></defs><path class="cls-1" d="m79.49,62.85v57.61h-5.7v-24.49h1.07c.77,0,1.4-.63,1.4-1.4v-4.95c0-.77-.63-1.4-1.4-1.4h-11.95c-.77,0-1.4.63-1.4,1.4v4.95c0,.77.63,1.4,1.4,1.4h2.77v65.55c0,.82.66,1.48,1.48,1.48h5.15c.82,0,1.48-.66,1.48-1.48v-31.78h5.7v16.65c0,5.16,4.19,9.35,9.35,9.35s9.35-4.18,9.35-9.35v-16.65h3.72v39.88c0,5.16,4.18,9.35,9.35,9.35s9.35-4.19,9.35-9.35v-39.88h5.62v31.78c0,.82.66,1.48,1.48,1.48h5.15c.82,0,1.48-.66,1.48-1.48v-65.55h2.77c.77,0,1.4-.63,1.4-1.4v-4.95c0-.77-.63-1.4-1.4-1.4h-11.95c-.77,0-1.4.63-1.4,1.4v4.95c0,.77.63,1.4,1.4,1.4h1.07v24.49h-5.62v-56.79"/><path class="cls-1" d="m58.06,99.95c-2.64,0-4.78,2.14-4.78,4.78v70.49c0,2.64,2.14,4.78,4.78,4.78s4.78-2.14,4.78-4.78v-70.49c0-2.64-2.14-4.78-4.78-4.78Z"/><path class="cls-1" d="m141.94,99.95c-2.64,0-4.78,2.14-4.78,4.78v70.49c0,2.64,2.14,4.78,4.78,4.78s4.78-2.14,4.78-4.78v-70.49c0-2.64-2.14-4.78-4.78-4.78Z"/><path class="cls-1" d="m100,55.26c9.58,0,17.34-7.76,17.34-17.34s-7.76-17.34-17.34-17.34-17.34,7.76-17.34,17.34,7.76,17.34,17.34,17.34Z"/><path class="cls-1" d="m127.67,65.41c-.77-3.78-3.75-6.76-7.54-7.54-.63-.13-1.28-.2-1.95-.2h-36.37c-.67,0-1.32.07-1.95.2-2.21.45-4.14,1.65-5.52,3.33-.2.24-.38.49-.56.75-.35.52-.65,1.07-.89,1.65-.49,1.16-.76,2.43-.76,3.77v24.19c0,5.35,4.34,9.69,9.69,9.69h36.37c5.35,0,9.69-4.34,9.69-9.69v-24.19c0-.67-.07-1.32-.2-1.95Z"/></svg>