<?xml version="1.0" encoding="UTF-8"?>
<!DOCTYPE svg PUBLIC "-//W3C//DTD SVG 1.1//EN" "http://www.w3.org/Graphics/SVG/1.1/DTD/svg11.dtd">
<svg version="1.2" width="297mm" height="210mm" viewBox="0 0 29700 21000" preserveAspectRatio="xMidYMid" fill-rule="evenodd" stroke-width="28.222" stroke-linejoin="round" xmlns="http://www.w3.org/2000/svg" xmlns:ooo="http://xml.openoffice.org/svg/export" xmlns:xlink="http://www.w3.org/1999/xlink" xmlns:presentation="http://sun.com/xmlns/staroffice/presentation" xmlns:smil="http://www.w3.org/2001/SMIL20/" xmlns:anim="urn:oasis:names:tc:opendocument:xmlns:animation:1.0" xml:space="preserve">
 <defs class="ClipPathGroup">
  <clipPath id="presentation_clip_path" clipPathUnits="userSpaceOnUse">
   <rect x="0" y="0" width="29700" height="21000"/>
  </clipPath>
  <clipPath id="presentation_clip_path_shrink" clipPathUnits="userSpaceOnUse">
   <rect x="29" y="21" width="29641" height="20958"/>
  </clipPath>
 </defs>
 <defs class="TextShapeIndex">
  <g ooo:slide="id1" ooo:id-list="id3 id4"/>
 </defs>
 <defs class="EmbeddedBulletChars">
  <g id="bullet-char-template-57356" transform="scale(0.00048828125,-0.00048828125)">
   <path d="M 580,1141 L 1163,571 580,0 -4,571 580,1141 Z"/>
  </g>
  <g id="bullet-char-template-57354" transform="scale(0.00048828125,-0.00048828125)">
   <path d="M 8,1128 L 1137,1128 1137,0 8,0 8,1128 Z"/>
  </g>
  <g id="bullet-char-template-10146" transform="scale(0.00048828125,-0.00048828125)">
   <path d="M 174,0 L 602,739 174,1481 1456,739 174,0 Z M 1358,739 L 309,1346 659,739 1358,739 Z"/>
  </g>
  <g id="bullet-char-template-10132" transform="scale(0.00048828125,-0.00048828125)">
   <path d="M 2015,739 L 1276,0 717,0 1260,543 174,543 174,936 1260,936 717,1481 1274,1481 2015,739 Z"/>
  </g>
  <g id="bullet-char-template-10007" transform="scale(0.00048828125,-0.00048828125)">
   <path d="M 0,-2 C -7,14 -16,27 -25,37 L 356,567 C 262,823 215,952 215,954 215,979 228,992 255,992 264,992 276,990 289,987 310,991 331,999 354,1012 L 381,999 492,748 772,1049 836,1024 860,1049 C 881,1039 901,1025 922,1006 886,937 835,863 770,784 769,783 710,716 594,584 L 774,223 C 774,196 753,168 711,139 L 727,119 C 717,90 699,76 672,76 641,76 570,178 457,381 L 164,-76 C 142,-110 111,-127 72,-127 30,-127 9,-110 8,-76 1,-67 -2,-52 -2,-32 -2,-23 -1,-13 0,-2 Z"/>
  </g>
  <g id="bullet-char-template-10004" transform="scale(0.00048828125,-0.00048828125)">
   <path d="M 285,-33 C 182,-33 111,30 74,156 52,228 41,333 41,471 41,549 55,616 82,672 116,743 169,778 240,778 293,778 328,747 346,684 L 369,508 C 377,444 397,411 428,410 L 1163,1116 C 1174,1127 1196,1133 1229,1133 1271,1133 1292,1118 1292,1087 L 1292,965 C 1292,929 1282,901 1262,881 L 442,47 C 390,-6 338,-33 285,-33 Z"/>
  </g>
  <g id="bullet-char-template-9679" transform="scale(0.00048828125,-0.00048828125)">
   <path d="M 813,0 C 632,0 489,54 383,161 276,268 223,411 223,592 223,773 276,916 383,1023 489,1130 632,1184 813,1184 992,1184 1136,1130 1245,1023 1353,916 1407,772 1407,592 1407,412 1353,268 1245,161 1136,54 992,0 813,0 Z"/>
  </g>
  <g id="bullet-char-template-8226" transform="scale(0.00048828125,-0.00048828125)">
   <path d="M 346,457 C 273,457 209,483 155,535 101,586 74,649 74,723 74,796 101,859 155,911 209,963 273,989 346,989 419,989 480,963 531,910 582,859 608,796 608,723 608,648 583,586 532,535 482,483 420,457 346,457 Z"/>
  </g>
  <g id="bullet-char-template-8211" transform="scale(0.00048828125,-0.00048828125)">
   <path d="M -4,459 L 1135,459 1135,606 -4,606 -4,459 Z"/>
  </g>
  <g id="bullet-char-template-61548" transform="scale(0.00048828125,-0.00048828125)">
   <path d="M 173,740 C 173,903 231,1043 346,1159 462,1274 601,1332 765,1332 928,1332 1067,1274 1183,1159 1299,1043 1357,903 1357,740 1357,577 1299,437 1183,322 1067,206 928,148 765,148 601,148 462,206 346,322 231,437 173,577 173,740 Z"/>
  </g>
 </defs>
 <g>
  <g id="id2" class="Master_Slide">
   <g id="bg-id2" class="Background"/>
   <g id="bo-id2" class="BackgroundObjects"/>
  </g>
 </g>
 <g class="SlideGroup">
  <g>
   <g id="container-id1">
    <g id="id1" class="Slide" clip-path="url(#presentation_clip_path)">
     <g class="Page">
      <g class="Graphic">
       <g id="id3">
        <rect class="BoundingBox" stroke="none" fill="none" x="1020" y="3000" width="17781" height="16001"/>
        <defs>
         <clipPath id="clip_path_1" clipPathUnits="userSpaceOnUse">
          <path d="M 1020,3000 L 18800,3000 18800,19000 1020,19000 1020,3000 Z"/>
         </clipPath>
        </defs>
        <g clip-path="url(#clip_path_1)">
         <path fill="rgb(65,119,190)" stroke="none" d="M 14572,6659 C 15583,6659 16401,5840 16401,4829 16401,3819 15583,3000 14572,3000 13561,3000 12742,3819 12742,4829 12742,5840 13561,6659 14572,6659 L 14572,6659 Z"/>
         <path fill="rgb(65,119,190)" stroke="none" d="M 11470,10396 C 12181,10396 12758,10973 12758,11684 12758,12396 12181,12972 11470,12972 10759,12972 10182,12396 10182,11684 10182,10973 10759,10396 11470,10396 Z M 12426,13299 C 12661,13299 12853,13490 12853,13725 L 12853,16021 C 12853,16257 12661,16448 12426,16448 L 12253,16448 12253,18574 C 12253,18810 12061,19001 11826,19001 L 11067,19001 C 10831,19001 10640,18810 10640,18574 L 10640,16448 10514,16448 C 10278,16448 10087,16257 10087,16021 L 10087,13725 C 10087,13490 10278,13299 10514,13299 L 12424,13299 Z"/>
         <path fill="rgb(65,119,190)" stroke="none" d="M 9621,10207 C 9677,10446 9669,10695 9598,10930 9528,11164 9396,11376 9218,11543 9039,11711 8819,11829 8581,11884 8342,11940 8093,11932 7859,11862 7624,11791 7412,11659 7245,11481 7077,11302 6959,11082 6903,10844 6848,10605 6856,10356 6926,10122 6997,9887 7129,9676 7307,9508 7486,9340 7706,9223 7944,9167 8183,9111 8432,9119 8666,9190 8901,9261 9113,9392 9280,9571 9448,9749 9566,9969 9621,10207 L 9621,10207 Z"/>
         <path fill="rgb(65,119,190)" stroke="none" d="M 5103,7044 C 6083,7044 6877,6250 6877,5270 6877,4291 6082,3497 5103,3497 4124,3497 3330,4291 3330,5270 3330,6250 4123,7044 5103,7044 L 5103,7044 Z"/>
         <path fill="rgb(65,119,190)" stroke="none" d="M 9551,13725 C 9551,13438 9678,13180 9878,13004 L 9878,12772 C 9878,12498 9654,12274 9379,12274 L 7145,12274 C 6871,12274 6646,12498 6646,12772 L 6646,15457 C 6646,15732 6871,15956 7145,15956 L 7293,15956 7293,18501 C 7293,18776 7517,19000 7792,19000 L 8679,19000 C 8953,19000 9177,18776 9177,18501 L 9177,15956 9379,15956 C 9440,15956 9497,15943 9551,15924 L 9551,13725 9551,13725 Z"/>
         <path fill="rgb(255,255,255)" stroke="none" d="M 2576,7754 C 1717,7754 1020,8451 1020,9309 1020,10168 1717,10865 2576,10865 3435,10865 4132,10169 4132,9309 4132,8450 3435,7754 2576,7754 L 2576,7754 2576,7754 Z"/>
         <path fill="rgb(79,115,115)" stroke="none" d="M 3954,9309 C 3954,9551 3890,9789 3769,9998 3648,10208 3474,10382 3265,10503 3055,10623 2818,10687 2576,10687 2334,10687 2096,10623 1887,10503 1677,10382 1503,10208 1382,9998 1261,9789 1198,9551 1198,9309 1198,9067 1261,8830 1382,8620 1503,8411 1677,8237 1887,8116 2096,7995 2334,7932 2576,7932 2818,7932 3055,7995 3265,8116 3474,8237 3648,8411 3769,8620 3890,8830 3954,9067 3954,9309 L 3954,9309 Z"/>
         <path fill="rgb(255,255,255)" stroke="none" d="M 2565,9724 C 2573,9710 2580,9695 2586,9678 2593,9661 2595,9644 2595,9627 2595,9590 2590,9558 2582,9529 L 2883,9529 2883,9343 2466,9343 C 2455,9332 2445,9320 2434,9309 2406,9283 2379,9256 2355,9228 2331,9199 2311,9168 2296,9134 2281,9100 2273,9060 2273,9014 2273,8959 2286,8908 2313,8862 2341,8816 2378,8780 2424,8752 2470,8724 2521,8711 2576,8711 2631,8711 2682,8724 2729,8752 2775,8780 2811,8816 2839,8862 2866,8908 2880,8959 2880,9014 L 3151,9014 C 3151,8935 3136,8860 3106,8791 3077,8722 3035,8661 2983,8608 2930,8555 2868,8514 2799,8484 2730,8454 2655,8439 2576,8439 2497,8439 2422,8454 2354,8484 2284,8515 2224,8556 2170,8609 2117,8662 2076,8723 2046,8792 2016,8860 2001,8935 2001,9014 2001,9054 2007,9092 2019,9126 2032,9161 2049,9193 2069,9223 2089,9253 2113,9282 2137,9308 2147,9321 2158,9332 2169,9343 L 2026,9343 2026,9529 2305,9529 C 2307,9534 2310,9540 2311,9544 2325,9576 2325,9604 2313,9631 2300,9658 2278,9679 2247,9697 2216,9716 2181,9729 2142,9739 2103,9748 2064,9753 2026,9753 L 2026,10024 3128,10024 3128,9753 2539,9753 C 2548,9746 2557,9736 2565,9723 L 2565,9724 Z"/>
         <path fill="rgb(255,255,255)" stroke="none" d="M 17244,7754 C 16385,7754 15689,8451 15689,9309 15689,10168 16385,10865 17244,10865 18103,10865 18800,10169 18800,9309 18800,8450 18103,7754 17244,7754 L 17244,7754 17244,7754 Z"/>
         <path fill="rgb(178,95,36)" stroke="none" d="M 18622,9309 C 18622,9551 18559,9789 18438,9998 18317,10208 18143,10382 17933,10503 17724,10623 17486,10687 17244,10687 17002,10687 16765,10623 16555,10503 16346,10382 16172,10208 16051,9998 15930,9789 15866,9551 15866,9309 15866,9067 15930,8830 16051,8620 16172,8411 16346,8237 16555,8116 16765,7995 17002,7932 17244,7932 17486,7932 17724,7995 17933,8116 18143,8237 18317,8411 18438,8620 18559,8830 18622,9067 18622,9309 L 18622,9309 Z"/>
         <path fill="rgb(255,255,255)" stroke="none" d="M 17234,9724 C 17242,9710 17249,9695 17255,9678 17261,9661 17264,9644 17264,9627 17264,9590 17258,9558 17250,9529 L 17552,9529 17552,9343 17134,9343 C 17123,9332 17114,9320 17102,9309 17074,9283 17048,9256 17024,9228 17000,9199 16979,9168 16964,9134 16949,9100 16941,9060 16941,9014 16941,8959 16954,8908 16982,8862 17010,8816 17046,8780 17092,8752 17138,8724 17189,8711 17244,8711 17299,8711 17351,8724 17397,8752 17443,8780 17480,8816 17507,8862 17535,8908 17548,8959 17548,9014 L 17819,9014 C 17819,8935 17804,8860 17775,8791 17746,8722 17704,8661 17651,8608 17599,8555 17537,8514 17467,8484 17398,8454 17323,8439 17244,8439 17165,8439 17090,8454 17022,8484 16953,8515 16892,8556 16839,8609 16786,8662 16745,8723 16714,8792 16684,8860 16669,8935 16669,9014 16669,9054 16675,9092 16688,9126 16700,9161 16717,9193 16738,9223 16758,9253 16781,9282 16805,9308 16816,9321 16826,9332 16837,9343 L 16695,9343 16695,9529 16974,9529 C 16976,9534 16978,9540 16979,9544 16994,9576 16994,9604 16981,9631 16969,9658 16946,9679 16915,9697 16884,9716 16850,9729 16810,9739 16771,9748 16732,9753 16695,9753 L 16695,10024 17796,10024 17796,9753 17208,9753 C 17217,9746 17226,9736 17234,9723 L 17234,9724 Z"/>
         <path fill="rgb(65,119,190)" stroke="none" d="M 7893,8629 C 7819,7910 7212,7349 6473,7349 L 3839,7349 C 3827,7349 3814,7351 3801,7351 3783,7351 3765,7353 3747,7354 3376,7376 3042,7531 2788,7770 3547,7874 4132,8523 4132,9309 4132,10169 3435,10865 2576,10865 2484,10865 2394,10855 2307,10840 L 2307,12456 C 2307,12996 2775,13500 3315,13585 3385,13596 3435,13660 3424,13731 L 3424,18008 C 3424,18556 3867,18999 4415,18999 L 5697,18999 C 6245,18999 6688,18556 6688,18008 L 6688,16384 C 6347,16214 6111,15862 6111,15456 L 6111,12772 C 6111,12319 6403,11934 6807,11793 6511,11453 6331,11009 6331,10524 6331,9585 7005,8801 7894,8628 L 7893,8629 Z"/>
         <path fill="rgb(65,119,190)" stroke="none" d="M 17244,10865 C 16385,10865 15689,10169 15689,9309 15689,8450 16385,7754 17244,7754 17328,7754 17409,7762 17488,7775 17386,7317 16978,6974 16490,6974 L 12653,6974 C 12089,6974 11631,7432 11631,7996 L 11631,9868 C 12562,9950 13295,10733 13295,11685 13295,12135 13132,12548 12861,12867 13174,13026 13389,13351 13389,13726 L 13389,16021 C 13389,16387 13183,16703 12883,16867 L 12883,17979 C 12883,18543 13341,19001 13905,19001 L 15239,19001 C 15803,19001 16261,18543 16261,17979 L 16261,13682 C 16261,13609 16320,13550 16393,13550 L 16491,13550 C 17056,13550 17514,13092 17514,12528 L 17514,10841 C 17426,10856 17337,10866 17245,10866 L 17244,10865 Z"/>
        </g>
       </g>
      </g>
      <g class="Graphic">
       <g id="id4">
        <rect class="BoundingBox" stroke="none" fill="none" x="18000" y="8100" width="10001" height="10901"/>
        <path fill="rgb(176,59,94)" stroke="none" d="M 24829,12345 C 24428,12345 24045,12325 23693,12289 23867,12415 24032,12555 24186,12710 24418,12942 24619,13198 24786,13473 24800,13473 24814,13473 24829,13473 26555,13473 27955,13092 27955,12624 L 27955,11645 C 27693,12043 26393,12346 24829,12346 L 24829,12345 Z"/>
        <path fill="rgb(176,59,94)" stroke="none" d="M 27955,14451 L 27955,13472 C 27710,13845 26554,14134 25123,14169 25255,14526 25337,14901 25364,15288 26836,15219 27955,14871 27955,14452 L 27955,14451 Z"/>
        <path fill="rgb(176,59,94)" stroke="none" d="M 27955,16279 L 27955,15299 C 27723,15652 26677,15929 25353,15989 25314,16383 25218,16765 25069,17125 26684,17092 27955,16726 27955,16280 L 27955,16279 Z"/>
        <path fill="rgb(176,59,94)" stroke="none" d="M 23656,18893 C 24018,18932 24414,18955 24829,18955 26555,18955 27955,18575 27955,18106 L 27955,17127 C 27693,17525 26393,17828 24829,17828 24784,17828 24739,17828 24695,17828 24547,18048 24377,18256 24186,18447 24020,18613 23843,18761 23656,18894 L 23656,18893 Z"/>
        <path fill="rgb(176,59,94)" stroke="none" d="M 27955,8994 C 27955,9143 27811,9289 27536,9418 27262,9547 26867,9654 26392,9729 25917,9803 25378,9842 24829,9842 24280,9842 23741,9803 23266,9729 22791,9654 22396,9547 22122,9418 21847,9289 21703,9143 21703,8994 21703,8845 21847,8698 22122,8569 22396,8440 22791,8333 23266,8259 23741,8184 24280,8145 24829,8145 25378,8145 25917,8184 26392,8259 26867,8333 27262,8440 27536,8569 27811,8698 27955,8845 27955,8994 L 27955,8994 Z"/>
        <path fill="rgb(176,59,94)" stroke="none" d="M 18045,15658 C 18045,17479 19522,18955 21342,18955 23163,18955 24640,17479 24640,15658 24640,13837 23163,12361 21342,12361 19522,12361 18045,13837 18045,15658 L 18045,15658 Z"/>
        <path fill="rgb(255,255,255)" stroke="none" d="M 19163,16634 L 19163,15171 18923,15171 19020,14812 19523,14812 19523,16634 19163,16634 19163,16634 Z"/>
        <path fill="rgb(255,255,255)" stroke="none" d="M 20523,16669 C 20417,16669 20322,16644 20235,16595 20149,16546 20073,16478 20009,16391 19945,16305 19895,16204 19861,16089 19826,15975 19809,15853 19809,15723 19809,15592 19826,15471 19861,15356 19895,15242 19945,15142 20009,15055 20073,14969 20148,14900 20235,14852 20322,14803 20418,14778 20523,14778 20627,14778 20723,14802 20810,14852 20896,14900 20971,14969 21034,15055 21097,15142 21146,15243 21181,15356 21215,15471 21233,15592 21233,15723 21233,15853 21216,15975 21181,16089 21146,16204 21097,16304 21034,16391 20971,16479 20896,16546 20810,16595 20723,16643 20627,16669 20523,16669 L 20523,16669 Z M 20523,16309 C 20608,16309 20679,16281 20735,16226 20791,16171 20832,16098 20859,16009 20885,15920 20898,15825 20898,15725 20898,15617 20884,15520 20856,15432 20828,15344 20786,15272 20731,15219 20675,15166 20606,15139 20523,15139 20459,15139 20402,15155 20355,15187 20307,15219 20268,15262 20238,15318 20207,15374 20184,15436 20168,15507 20153,15577 20146,15649 20146,15725 20146,15825 20159,15920 20187,16009 20215,16098 20257,16171 20313,16226 20368,16282 20439,16310 20524,16310 L 20523,16309 Z"/>
        <path fill="rgb(255,255,255)" stroke="none" d="M 22032,16669 C 21927,16669 21832,16644 21745,16595 21659,16546 21583,16478 21519,16391 21455,16305 21405,16204 21371,16089 21336,15975 21319,15853 21319,15723 21319,15592 21336,15471 21371,15356 21405,15242 21455,15142 21519,15055 21583,14969 21658,14900 21745,14852 21832,14803 21928,14778 22032,14778 22137,14778 22233,14802 22320,14852 22406,14900 22481,14969 22544,15055 22607,15142 22656,15243 22691,15356 22725,15471 22743,15592 22743,15723 22743,15853 22726,15975 22691,16089 22656,16204 22607,16304 22544,16391 22481,16479 22406,16546 22320,16595 22233,16643 22137,16669 22032,16669 L 22032,16669 Z M 22032,16309 C 22118,16309 22189,16281 22245,16226 22301,16171 22341,16098 22368,16009 22395,15920 22408,15825 22408,15725 22408,15617 22394,15520 22366,15432 22338,15344 22295,15272 22241,15219 22185,15166 22116,15139 22033,15139 21968,15139 21912,15155 21865,15187 21817,15219 21778,15262 21748,15318 21717,15374 21694,15436 21678,15507 21663,15577 21656,15649 21656,15725 21656,15825 21669,15920 21697,16009 21725,16098 21767,16171 21823,16226 21878,16282 21949,16310 22034,16310 L 22032,16309 Z"/>
        <path fill="rgb(255,255,255)" stroke="none" d="M 23817,16634 L 23515,16634 23314,16288 23197,16425 23197,16634 22935,16634 22935,15209 23197,15209 23197,16018 23477,15685 23819,15685 23493,16075 23817,16634 23817,16634 Z"/>
        <path fill="rgb(176,59,94)" stroke="none" d="M 25965,10479 L 25965,10479 C 25789,10497 25605,10512 25415,10521 25415,10521 25414,10521 25414,10521 25320,10525 25224,10529 25128,10531 25126,10531 25125,10531 25123,10531 25026,10534 24928,10535 24828,10535 24728,10535 24630,10534 24532,10531 24531,10531 24530,10531 24528,10531 24432,10529 24336,10525 24242,10521 24242,10521 24242,10521 24241,10521 24051,10511 23868,10497 23691,10479 L 23691,10479 C 22666,10374 21896,10130 21701,9835 L 21701,10814 C 21701,11279 23077,11656 24784,11663 L 24784,11663 C 24798,11663 24813,11663 24827,11663 24841,11663 24856,11663 24870,11663 L 24870,11663 C 26577,11656 27953,11279 27953,10814 L 27953,9835 C 27759,10131 26988,10375 25963,10479 L 25965,10479 Z"/>
       </g>
      </g>
     </g>
    </g>
   </g>
  </g>
 </g>
</svg>