<?xml version="1.0" encoding="UTF-8"?>
<!DOCTYPE svg PUBLIC "-//W3C//DTD SVG 1.1//EN" "http://www.w3.org/Graphics/SVG/1.1/DTD/svg11.dtd">
<svg version="1.2" width="297mm" height="210mm" viewBox="0 0 29700 21000" preserveAspectRatio="xMidYMid" fill-rule="evenodd" stroke-width="28.222" stroke-linejoin="round" xmlns="http://www.w3.org/2000/svg" xmlns:ooo="http://xml.openoffice.org/svg/export" xmlns:xlink="http://www.w3.org/1999/xlink" xmlns:presentation="http://sun.com/xmlns/staroffice/presentation" xmlns:smil="http://www.w3.org/2001/SMIL20/" xmlns:anim="urn:oasis:names:tc:opendocument:xmlns:animation:1.0" xml:space="preserve">
 <defs class="ClipPathGroup">
  <clipPath id="presentation_clip_path" clipPathUnits="userSpaceOnUse">
   <rect x="0" y="0" width="29700" height="21000"/>
  </clipPath>
  <clipPath id="presentation_clip_path_shrink" clipPathUnits="userSpaceOnUse">
   <rect x="29" y="21" width="29641" height="20958"/>
  </clipPath>
 </defs>
 <defs class="TextShapeIndex">
  <g ooo:slide="id1" ooo:id-list="id3 id4"/>
 </defs>
 <defs class="EmbeddedBulletChars">
  <g id="bullet-char-template-57356" transform="scale(0.00048828125,-0.00048828125)">
   <path d="M 580,1141 L 1163,571 580,0 -4,571 580,1141 Z"/>
  </g>
  <g id="bullet-char-template-57354" transform="scale(0.00048828125,-0.00048828125)">
   <path d="M 8,1128 L 1137,1128 1137,0 8,0 8,1128 Z"/>
  </g>
  <g id="bullet-char-template-10146" transform="scale(0.00048828125,-0.00048828125)">
   <path d="M 174,0 L 602,739 174,1481 1456,739 174,0 Z M 1358,739 L 309,1346 659,739 1358,739 Z"/>
  </g>
  <g id="bullet-char-template-10132" transform="scale(0.00048828125,-0.00048828125)">
   <path d="M 2015,739 L 1276,0 717,0 1260,543 174,543 174,936 1260,936 717,1481 1274,1481 2015,739 Z"/>
  </g>
  <g id="bullet-char-template-10007" transform="scale(0.00048828125,-0.00048828125)">
   <path d="M 0,-2 C -7,14 -16,27 -25,37 L 356,567 C 262,823 215,952 215,954 215,979 228,992 255,992 264,992 276,990 289,987 310,991 331,999 354,1012 L 381,999 492,748 772,1049 836,1024 860,1049 C 881,1039 901,1025 922,1006 886,937 835,863 770,784 769,783 710,716 594,584 L 774,223 C 774,196 753,168 711,139 L 727,119 C 717,90 699,76 672,76 641,76 570,178 457,381 L 164,-76 C 142,-110 111,-127 72,-127 30,-127 9,-110 8,-76 1,-67 -2,-52 -2,-32 -2,-23 -1,-13 0,-2 Z"/>
  </g>
  <g id="bullet-char-template-10004" transform="scale(0.00048828125,-0.00048828125)">
   <path d="M 285,-33 C 182,-33 111,30 74,156 52,228 41,333 41,471 41,549 55,616 82,672 116,743 169,778 240,778 293,778 328,747 346,684 L 369,508 C 377,444 397,411 428,410 L 1163,1116 C 1174,1127 1196,1133 1229,1133 1271,1133 1292,1118 1292,1087 L 1292,965 C 1292,929 1282,901 1262,881 L 442,47 C 390,-6 338,-33 285,-33 Z"/>
  </g>
  <g id="bullet-char-template-9679" transform="scale(0.00048828125,-0.00048828125)">
   <path d="M 813,0 C 632,0 489,54 383,161 276,268 223,411 223,592 223,773 276,916 383,1023 489,1130 632,1184 813,1184 992,1184 1136,1130 1245,1023 1353,916 1407,772 1407,592 1407,412 1353,268 1245,161 1136,54 992,0 813,0 Z"/>
  </g>
  <g id="bullet-char-template-8226" transform="scale(0.00048828125,-0.00048828125)">
   <path d="M 346,457 C 273,457 209,483 155,535 101,586 74,649 74,723 74,796 101,859 155,911 209,963 273,989 346,989 419,989 480,963 531,910 582,859 608,796 608,723 608,648 583,586 532,535 482,483 420,457 346,457 Z"/>
  </g>
  <g id="bullet-char-template-8211" transform="scale(0.00048828125,-0.00048828125)">
   <path d="M -4,459 L 1135,459 1135,606 -4,606 -4,459 Z"/>
  </g>
  <g id="bullet-char-template-61548" transform="scale(0.00048828125,-0.00048828125)">
   <path d="M 173,740 C 173,903 231,1043 346,1159 462,1274 601,1332 765,1332 928,1332 1067,1274 1183,1159 1299,1043 1357,903 1357,740 1357,577 1299,437 1183,322 1067,206 928,148 765,148 601,148 462,206 346,322 231,437 173,577 173,740 Z"/>
  </g>
 </defs>
 <g>
  <g id="id2" class="Master_Slide">
   <g id="bg-id2" class="Background"/>
   <g id="bo-id2" class="BackgroundObjects"/>
  </g>
 </g>
 <g class="SlideGroup">
  <g>
   <g id="container-id1">
    <g id="id1" class="Slide" clip-path="url(#presentation_clip_path)">
     <g class="Page">
      <g class="Graphic">
       <g id="id3">
        <rect class="BoundingBox" stroke="none" fill="none" x="2000" y="4600" width="16001" height="14401"/>
        <defs>
         <clipPath id="clip_path_1" clipPathUnits="userSpaceOnUse">
          <path d="M 2000,4600 L 18000,4600 18000,19000 2000,19000 2000,4600 Z"/>
         </clipPath>
        </defs>
        <g clip-path="url(#clip_path_1)">
         <path fill="rgb(65,119,190)" stroke="none" d="M 11629,7893 C 12538,7893 13275,7156 13275,6246 13275,5337 12538,4600 11629,4600 10719,4600 9982,5337 9982,6246 9982,7156 10719,7893 11629,7893 L 11629,7893 Z"/>
         <path fill="rgb(65,119,190)" stroke="none" d="M 6968,11257 C 7608,11257 8127,11776 8127,12416 8127,13056 7608,13575 6968,13575 6328,13575 5809,13056 5809,12416 5809,11776 6328,11257 6968,11257 Z M 7828,13869 C 8040,13869 8212,14041 8212,14253 L 8212,16319 C 8212,16531 8040,16703 7828,16703 L 7672,16703 7672,18617 C 7672,18829 7500,19001 7288,19001 L 6605,19001 C 6393,19001 6221,18829 6221,18617 L 6221,16703 6107,16703 C 5895,16703 5723,16531 5723,16319 L 5723,14253 C 5723,14041 5895,13869 6107,13869 L 7826,13869 Z"/>
         <path fill="rgb(65,119,190)" stroke="none" d="M 14257,8911 C 14183,8552 13900,8269 13541,8195 13481,8183 13419,8177 13355,8177 L 9902,8177 C 9839,8177 9777,8183 9717,8195 9507,8238 9324,8352 9193,8511 9174,8534 9156,8558 9140,8582 9107,8631 9078,8684 9055,8738 9009,8849 8983,8970 8983,9097 L 8983,13175 C 8983,13683 9395,14095 9903,14095 L 9992,14095 C 10058,14095 10110,14148 10110,14214 L 10110,18081 C 10110,18494 10382,18843 10757,18959 10786,18968 10815,18976 10845,18982 10905,18994 10966,19000 11030,19000 L 12230,19000 C 12294,19000 12356,18994 12416,18982 12446,18975 12475,18968 12504,18959 12878,18842 13150,18494 13150,18081 L 13150,14214 C 13150,14148 13203,14095 13269,14095 L 13358,14095 C 13866,14095 14278,13683 14278,13175 L 14278,9097 C 14278,9034 14271,8971 14259,8911 L 14257,8911 Z"/>
        </g>
       </g>
      </g>
      <g class="Graphic">
       <g id="id4">
        <rect class="BoundingBox" stroke="none" fill="none" x="17000" y="7700" width="10001" height="11351"/>
        <path fill="rgb(176,59,94)" stroke="none" d="M 26955,16329 L 26955,15350 C 26723,15702 25677,15979 24353,16039 24314,16433 24218,16815 24069,17175 25684,17142 26955,16776 26955,16330 L 26955,16329 Z"/>
        <path fill="rgb(176,59,94)" stroke="none" d="M 22656,18943 C 23018,18982 23414,19005 23829,19005 25555,19005 26955,18625 26955,18156 L 26955,17177 C 26693,17575 25393,17878 23829,17878 23784,17878 23739,17878 23695,17878 23547,18098 23377,18306 23186,18497 23020,18663 22843,18811 22656,18944 L 22656,18943 Z"/>
        <path fill="rgb(176,59,94)" stroke="none" d="M 17045,15708 C 17045,17529 18522,19005 20342,19005 22163,19005 23640,17529 23640,15708 23640,13888 22163,12411 20342,12411 18522,12411 17045,13888 17045,15708 L 17045,15708 Z"/>
        <path fill="rgb(255,255,255)" stroke="none" d="M 18414,16685 L 18414,16365 C 18466,16328 18529,16281 18604,16223 18678,16166 18756,16102 18837,16032 18918,15963 18993,15892 19063,15820 19133,15748 19190,15679 19233,15615 19277,15551 19299,15496 19299,15450 19299,15404 19287,15359 19264,15319 19241,15279 19209,15248 19170,15223 19132,15200 19087,15188 19041,15188 18994,15188 18950,15200 18910,15223 18870,15247 18839,15278 18815,15319 18791,15359 18779,15403 18779,15450 L 18420,15450 C 18420,15333 18449,15228 18505,15134 18562,15041 18638,14967 18732,14912 18826,14857 18929,14830 19041,14830 19152,14830 19258,14858 19351,14913 19445,14968 19520,15043 19576,15137 19632,15232 19659,15335 19659,15450 19659,15510 19650,15567 19632,15622 19614,15678 19588,15733 19554,15788 19520,15843 19479,15899 19431,15956 19382,16013 19328,16072 19268,16132 19207,16194 19142,16258 19073,16326 L 19663,16326 19663,16685 18414,16685 18414,16685 Z"/>
        <path fill="rgb(255,255,255)" stroke="none" d="M 20544,16719 C 20425,16719 20318,16690 20222,16632 20126,16575 20050,16498 19994,16402 19938,16306 19910,16201 19910,16087 L 20269,16087 C 20269,16138 20282,16184 20306,16224 20331,16266 20364,16298 20406,16322 20448,16347 20494,16359 20544,16359 20595,16359 20639,16348 20680,16322 20722,16298 20754,16266 20779,16224 20804,16183 20816,16137 20816,16087 20816,16038 20806,15991 20786,15948 20765,15905 20731,15871 20681,15846 20632,15821 20563,15807 20477,15807 L 20000,15807 20199,14862 21108,14862 21108,15222 20491,15222 20444,15448 20546,15450 C 20670,15455 20779,15486 20873,15543 20967,15601 21041,15677 21095,15771 21149,15866 21176,15971 21176,16087 21176,16173 21159,16254 21127,16331 21095,16407 21050,16474 20992,16532 20934,16591 20868,16636 20791,16669 20714,16703 20632,16719 20545,16719 L 20544,16719 Z"/>
        <path fill="rgb(255,255,255)" stroke="none" d="M 22328,16685 L 22026,16685 21824,16338 21708,16476 21708,16685 21446,16685 21446,15259 21708,15259 21708,16068 21987,15735 22330,15735 22004,16125 22328,16685 22328,16685 Z"/>
        <path fill="rgb(176,59,94)" stroke="none" d="M 23829,13640 C 23819,13640 23809,13640 23800,13640 24103,14141 24299,14713 24359,15324 25832,15256 26955,14908 26955,14488 26955,14020 25555,13640 23829,13640 L 23829,13640 Z"/>
       </g>
      </g>
     </g>
    </g>
   </g>
  </g>
 </g>
</svg>