<?xml version="1.0" encoding="UTF-8"?>
<!DOCTYPE svg PUBLIC "-//W3C//DTD SVG 1.1//EN" "http://www.w3.org/Graphics/SVG/1.1/DTD/svg11.dtd">
<svg version="1.2" width="297mm" height="210mm" viewBox="0 0 29700 21000" preserveAspectRatio="xMidYMid" fill-rule="evenodd" stroke-width="28.222" stroke-linejoin="round" xmlns="http://www.w3.org/2000/svg" xmlns:ooo="http://xml.openoffice.org/svg/export" xmlns:xlink="http://www.w3.org/1999/xlink" xmlns:presentation="http://sun.com/xmlns/staroffice/presentation" xmlns:smil="http://www.w3.org/2001/SMIL20/" xmlns:anim="urn:oasis:names:tc:opendocument:xmlns:animation:1.0" xml:space="preserve">
 <defs class="ClipPathGroup">
  <clipPath id="presentation_clip_path" clipPathUnits="userSpaceOnUse">
   <rect x="0" y="0" width="29700" height="21000"/>
  </clipPath>
  <clipPath id="presentation_clip_path_shrink" clipPathUnits="userSpaceOnUse">
   <rect x="29" y="21" width="29641" height="20958"/>
  </clipPath>
 </defs>
 <defs class="TextShapeIndex">
  <g ooo:slide="id1" ooo:id-list="id3 id4"/>
 </defs>
 <defs class="EmbeddedBulletChars">
  <g id="bullet-char-template-57356" transform="scale(0.00048828125,-0.00048828125)">
   <path d="M 580,1141 L 1163,571 580,0 -4,571 580,1141 Z"/>
  </g>
  <g id="bullet-char-template-57354" transform="scale(0.00048828125,-0.00048828125)">
   <path d="M 8,1128 L 1137,1128 1137,0 8,0 8,1128 Z"/>
  </g>
  <g id="bullet-char-template-10146" transform="scale(0.00048828125,-0.00048828125)">
   <path d="M 174,0 L 602,739 174,1481 1456,739 174,0 Z M 1358,739 L 309,1346 659,739 1358,739 Z"/>
  </g>
  <g id="bullet-char-template-10132" transform="scale(0.00048828125,-0.00048828125)">
   <path d="M 2015,739 L 1276,0 717,0 1260,543 174,543 174,936 1260,936 717,1481 1274,1481 2015,739 Z"/>
  </g>
  <g id="bullet-char-template-10007" transform="scale(0.00048828125,-0.00048828125)">
   <path d="M 0,-2 C -7,14 -16,27 -25,37 L 356,567 C 262,823 215,952 215,954 215,979 228,992 255,992 264,992 276,990 289,987 310,991 331,999 354,1012 L 381,999 492,748 772,1049 836,1024 860,1049 C 881,1039 901,1025 922,1006 886,937 835,863 770,784 769,783 710,716 594,584 L 774,223 C 774,196 753,168 711,139 L 727,119 C 717,90 699,76 672,76 641,76 570,178 457,381 L 164,-76 C 142,-110 111,-127 72,-127 30,-127 9,-110 8,-76 1,-67 -2,-52 -2,-32 -2,-23 -1,-13 0,-2 Z"/>
  </g>
  <g id="bullet-char-template-10004" transform="scale(0.00048828125,-0.00048828125)">
   <path d="M 285,-33 C 182,-33 111,30 74,156 52,228 41,333 41,471 41,549 55,616 82,672 116,743 169,778 240,778 293,778 328,747 346,684 L 369,508 C 377,444 397,411 428,410 L 1163,1116 C 1174,1127 1196,1133 1229,1133 1271,1133 1292,1118 1292,1087 L 1292,965 C 1292,929 1282,901 1262,881 L 442,47 C 390,-6 338,-33 285,-33 Z"/>
  </g>
  <g id="bullet-char-template-9679" transform="scale(0.00048828125,-0.00048828125)">
   <path d="M 813,0 C 632,0 489,54 383,161 276,268 223,411 223,592 223,773 276,916 383,1023 489,1130 632,1184 813,1184 992,1184 1136,1130 1245,1023 1353,916 1407,772 1407,592 1407,412 1353,268 1245,161 1136,54 992,0 813,0 Z"/>
  </g>
  <g id="bullet-char-template-8226" transform="scale(0.00048828125,-0.00048828125)">
   <path d="M 346,457 C 273,457 209,483 155,535 101,586 74,649 74,723 74,796 101,859 155,911 209,963 273,989 346,989 419,989 480,963 531,910 582,859 608,796 608,723 608,648 583,586 532,535 482,483 420,457 346,457 Z"/>
  </g>
  <g id="bullet-char-template-8211" transform="scale(0.00048828125,-0.00048828125)">
   <path d="M -4,459 L 1135,459 1135,606 -4,606 -4,459 Z"/>
  </g>
  <g id="bullet-char-template-61548" transform="scale(0.00048828125,-0.00048828125)">
   <path d="M 173,740 C 173,903 231,1043 346,1159 462,1274 601,1332 765,1332 928,1332 1067,1274 1183,1159 1299,1043 1357,903 1357,740 1357,577 1299,437 1183,322 1067,206 928,148 765,148 601,148 462,206 346,322 231,437 173,577 173,740 Z"/>
  </g>
 </defs>
 <g>
  <g id="id2" class="Master_Slide">
   <g id="bg-id2" class="Background"/>
   <g id="bo-id2" class="BackgroundObjects"/>
  </g>
 </g>
 <g class="SlideGroup">
  <g>
   <g id="container-id1">
    <g id="id1" class="Slide" clip-path="url(#presentation_clip_path)">
     <g class="Page">
      <g class="Graphic">
       <g id="id3">
        <rect class="BoundingBox" stroke="none" fill="none" x="400" y="3000" width="17601" height="16001"/>
        <defs>
         <clipPath id="clip_path_1" clipPathUnits="userSpaceOnUse">
          <path d="M 400,3000 L 18000,3000 18000,19000 400,19000 400,3000 Z"/>
         </clipPath>
        </defs>
        <g clip-path="url(#clip_path_1)">
         <path fill="rgb(65,119,190)" stroke="none" d="M 13815,6659 C 14815,6659 15626,5840 15626,4829 15626,3819 14815,3000 13815,3000 12814,3000 12004,3819 12004,4829 12004,5840 12814,6659 13815,6659 L 13815,6659 Z"/>
         <path fill="rgb(65,119,190)" stroke="none" d="M 15714,6974 L 11916,6974 C 11357,6974 10904,7432 10904,7996 L 10904,9868 C 11825,9950 12551,10733 12551,11685 12551,12135 12389,12548 12121,12867 12430,13026 12643,13351 12643,13726 L 12643,16021 C 12643,16387 12440,16703 12143,16867 L 12143,17979 C 12143,18543 12596,19001 13155,19001 L 14475,19001 C 15034,19001 15487,18543 15487,17979 L 15487,13682 C 15487,13609 15545,13550 15617,13550 L 15715,13550 C 16273,13550 16727,13092 16727,12528 L 16727,7996 C 16727,7432 16273,6974 15715,6974 L 15714,6974 Z"/>
         <path fill="rgb(65,119,190)" stroke="none" d="M 10744,10396 C 11448,10396 12020,10973 12020,11684 12020,12396 11448,12972 10744,12972 10040,12972 9469,12396 9469,11684 9469,10973 10040,10396 10744,10396 Z M 11690,13299 C 11924,13299 12113,13490 12113,13725 L 12113,16021 C 12113,16257 11924,16448 11690,16448 L 11519,16448 11519,18574 C 11519,18810 11330,19001 11096,19001 L 10345,19001 C 10112,19001 9922,18810 9922,18574 L 9922,16448 9798,16448 C 9564,16448 9375,16257 9375,16021 L 9375,13725 C 9375,13490 9564,13299 9798,13299 L 11689,13299 Z"/>
         <path fill="rgb(65,119,190)" stroke="none" d="M 8914,10207 C 8970,10446 8962,10695 8892,10930 8821,11164 8691,11376 8515,11543 8338,11711 8120,11829 7884,11884 7648,11940 7401,11932 7169,11862 6937,11791 6728,11659 6562,11481 6396,11302 6279,11082 6224,10844 6169,10605 6176,10356 6247,10122 6317,9887 6447,9676 6624,9508 6801,9340 7018,9223 7254,9167 7490,9111 7737,9119 7969,9190 8201,9261 8411,9392 8577,9571 8743,9749 8859,9969 8914,10207 L 8914,10207 Z"/>
         <path fill="rgb(65,119,190)" stroke="none" d="M 4442,7044 C 5412,7044 6197,6250 6197,5270 6197,4291 5411,3497 4442,3497 3473,3497 2686,4291 2686,5270 2686,6250 3472,7044 4442,7044 L 4442,7044 Z"/>
         <path fill="rgb(65,119,190)" stroke="none" d="M 8844,13725 C 8844,13438 8970,13180 9168,13004 L 9168,12772 C 9168,12498 8947,12274 8675,12274 L 6463,12274 C 6191,12274 5970,12498 5970,12772 L 5970,15457 C 5970,15732 6191,15956 6463,15956 L 6609,15956 6609,18501 C 6609,18776 6831,19000 7103,19000 L 7981,19000 C 8253,19000 8475,18776 8475,18501 L 8475,15956 8675,15956 C 8734,15956 8791,15943 8844,15924 L 8844,13725 8844,13725 Z"/>
         <path fill="rgb(255,255,255)" stroke="none" d="M 1940,7754 C 1090,7754 400,8451 400,9309 400,10168 1090,10865 1940,10865 2790,10865 3480,10169 3480,9309 3480,8450 2790,7754 1940,7754 L 1940,7754 1940,7754 Z"/>
         <path fill="rgb(79,115,115)" stroke="none" d="M 3304,9309 C 3304,9551 3241,9789 3121,9998 3002,10208 2829,10382 2622,10503 2415,10623 2179,10687 1940,10687 1701,10687 1465,10623 1258,10503 1051,10382 878,10208 759,9998 639,9789 576,9551 576,9309 576,9067 639,8830 759,8620 878,8411 1051,8237 1258,8116 1465,7995 1701,7932 1940,7932 2179,7932 2415,7995 2622,8116 2829,8237 3002,8411 3121,8620 3241,8830 3304,9067 3304,9309 L 3304,9309 Z"/>
         <path fill="rgb(255,255,255)" stroke="none" d="M 1929,9724 C 1937,9710 1944,9695 1951,9678 1957,9661 1959,9644 1959,9627 1959,9590 1954,9558 1946,9529 L 2244,9529 2244,9343 1831,9343 C 1820,9332 1811,9320 1799,9309 1772,9283 1746,9256 1722,9228 1698,9199 1678,9168 1663,9134 1648,9100 1640,9060 1640,9014 1640,8959 1653,8908 1680,8862 1708,8816 1744,8780 1790,8752 1835,8724 1885,8711 1940,8711 1995,8711 2046,8724 2091,8752 2137,8780 2173,8816 2200,8862 2228,8908 2241,8959 2241,9014 L 2509,9014 C 2509,8935 2494,8860 2465,8791 2436,8722 2395,8661 2343,8608 2291,8555 2230,8514 2161,8484 2092,8454 2018,8439 1940,8439 1862,8439 1788,8454 1720,8484 1651,8515 1592,8556 1539,8609 1486,8662 1445,8723 1416,8792 1386,8860 1371,8935 1371,9014 1371,9054 1377,9092 1389,9126 1401,9161 1418,9193 1438,9223 1459,9253 1482,9282 1505,9308 1516,9321 1526,9332 1537,9343 L 1396,9343 1396,9529 1672,9529 C 1674,9534 1677,9540 1678,9544 1692,9576 1692,9604 1680,9631 1667,9658 1645,9679 1614,9697 1584,9716 1549,9729 1511,9739 1472,9748 1433,9753 1396,9753 L 1396,10024 2486,10024 2486,9753 1904,9753 C 1913,9746 1922,9736 1929,9723 L 1929,9724 Z"/>
         <path fill="rgb(65,119,190)" stroke="none" d="M 7203,8629 C 7130,7910 6529,7349 5798,7349 L 3190,7349 C 3178,7349 3166,7351 3153,7351 3135,7351 3117,7353 3100,7354 2732,7376 2401,7531 2150,7770 2901,7874 3480,8523 3480,9309 3480,10169 2790,10865 1940,10865 1849,10865 1760,10855 1674,10840 L 1674,12456 C 1674,12996 2137,13500 2671,13585 2741,13596 2790,13660 2780,13731 L 2780,18008 C 2780,18556 3219,18999 3761,18999 L 5030,18999 C 5572,18999 6011,18556 6011,18008 L 6011,16384 C 5673,16214 5440,15862 5440,15456 L 5440,12772 C 5440,12319 5728,11934 6129,11793 5836,11453 5657,11009 5657,10524 5657,9585 6324,8801 7204,8628 L 7203,8629 Z"/>
        </g>
       </g>
      </g>
      <g class="Graphic">
       <g id="id4">
        <rect class="BoundingBox" stroke="none" fill="none" x="16800" y="7650" width="10001" height="11351"/>
        <path fill="rgb(176,59,94)" stroke="none" d="M 22456,18893 C 22818,18932 23214,18955 23629,18955 25355,18955 26755,18575 26755,18106 L 26755,17127 C 26493,17525 25193,17828 23629,17828 23584,17828 23539,17828 23495,17828 23347,18048 23177,18256 22986,18447 22820,18613 22643,18761 22456,18894 L 22456,18893 Z"/>
        <path fill="rgb(176,59,94)" stroke="none" d="M 16845,15658 C 16845,17479 18322,18955 20142,18955 21963,18955 23440,17479 23440,15658 23440,13838 21963,12361 20142,12361 18322,12361 16845,13838 16845,15658 L 16845,15658 Z"/>
        <path fill="rgb(255,255,255)" stroke="none" d="M 18753,16635 L 18753,15172 18514,15172 18610,14812 19113,14812 19113,16635 18753,16635 18753,16635 Z"/>
        <path fill="rgb(255,255,255)" stroke="none" d="M 19425,16635 L 19425,16315 C 19477,16278 19541,16231 19615,16173 19690,16116 19768,16052 19849,15982 19930,15913 20005,15842 20075,15770 20145,15698 20202,15629 20245,15565 20289,15501 20311,15446 20311,15400 20311,15354 20299,15309 20276,15269 20252,15229 20221,15198 20182,15173 20143,15150 20099,15138 20052,15138 20005,15138 19961,15150 19922,15173 19882,15197 19850,15228 19827,15269 19803,15309 19791,15353 19791,15400 L 19432,15400 C 19432,15283 19460,15178 19517,15084 19574,14991 19650,14917 19743,14862 19838,14807 19941,14780 20052,14780 20164,14780 20269,14808 20363,14863 20457,14918 20532,14993 20587,15087 20643,15182 20670,15285 20670,15400 20670,15460 20661,15517 20643,15572 20625,15628 20600,15683 20566,15738 20532,15793 20491,15849 20442,15906 20394,15963 20340,16022 20279,16082 20219,16144 20154,16208 20085,16276 L 20675,16276 20675,16635 19425,16635 19425,16635 Z"/>
        <path fill="rgb(255,255,255)" stroke="none" d="M 21827,16635 L 21525,16635 21323,16288 21207,16426 21207,16635 20945,16635 20945,15209 21207,15209 21207,16018 21486,15685 21829,15685 21503,16075 21827,16635 21827,16635 Z"/>
        <path fill="rgb(176,59,94)" stroke="none" d="M 24185,15441 C 24188,15513 24191,15585 24191,15658 24191,16174 24093,16667 23916,17121 25508,17081 26755,16718 26755,16276 26755,15859 25646,15512 24185,15441 L 24185,15441 Z"/>
       </g>
      </g>
     </g>
    </g>
   </g>
  </g>
 </g>
</svg>