<?xml version="1.0" encoding="UTF-8"?>
<!DOCTYPE svg PUBLIC "-//W3C//DTD SVG 1.1//EN" "http://www.w3.org/Graphics/SVG/1.1/DTD/svg11.dtd">
<svg version="1.2" width="297mm" height="210mm" viewBox="0 0 29700 21000" preserveAspectRatio="xMidYMid" fill-rule="evenodd" stroke-width="28.222" stroke-linejoin="round" xmlns="http://www.w3.org/2000/svg" xmlns:ooo="http://xml.openoffice.org/svg/export" xmlns:xlink="http://www.w3.org/1999/xlink" xmlns:presentation="http://sun.com/xmlns/staroffice/presentation" xmlns:smil="http://www.w3.org/2001/SMIL20/" xmlns:anim="urn:oasis:names:tc:opendocument:xmlns:animation:1.0" xml:space="preserve">
 <defs class="ClipPathGroup">
  <clipPath id="presentation_clip_path" clipPathUnits="userSpaceOnUse">
   <rect x="0" y="0" width="29700" height="21000"/>
  </clipPath>
  <clipPath id="presentation_clip_path_shrink" clipPathUnits="userSpaceOnUse">
   <rect x="29" y="21" width="29641" height="20958"/>
  </clipPath>
 </defs>
 <defs class="TextShapeIndex">
  <g ooo:slide="id1" ooo:id-list="id3"/>
 </defs>
 <defs class="EmbeddedBulletChars">
  <g id="bullet-char-template-57356" transform="scale(0.00048828125,-0.00048828125)">
   <path d="M 580,1141 L 1163,571 580,0 -4,571 580,1141 Z"/>
  </g>
  <g id="bullet-char-template-57354" transform="scale(0.00048828125,-0.00048828125)">
   <path d="M 8,1128 L 1137,1128 1137,0 8,0 8,1128 Z"/>
  </g>
  <g id="bullet-char-template-10146" transform="scale(0.00048828125,-0.00048828125)">
   <path d="M 174,0 L 602,739 174,1481 1456,739 174,0 Z M 1358,739 L 309,1346 659,739 1358,739 Z"/>
  </g>
  <g id="bullet-char-template-10132" transform="scale(0.00048828125,-0.00048828125)">
   <path d="M 2015,739 L 1276,0 717,0 1260,543 174,543 174,936 1260,936 717,1481 1274,1481 2015,739 Z"/>
  </g>
  <g id="bullet-char-template-10007" transform="scale(0.00048828125,-0.00048828125)">
   <path d="M 0,-2 C -7,14 -16,27 -25,37 L 356,567 C 262,823 215,952 215,954 215,979 228,992 255,992 264,992 276,990 289,987 310,991 331,999 354,1012 L 381,999 492,748 772,1049 836,1024 860,1049 C 881,1039 901,1025 922,1006 886,937 835,863 770,784 769,783 710,716 594,584 L 774,223 C 774,196 753,168 711,139 L 727,119 C 717,90 699,76 672,76 641,76 570,178 457,381 L 164,-76 C 142,-110 111,-127 72,-127 30,-127 9,-110 8,-76 1,-67 -2,-52 -2,-32 -2,-23 -1,-13 0,-2 Z"/>
  </g>
  <g id="bullet-char-template-10004" transform="scale(0.00048828125,-0.00048828125)">
   <path d="M 285,-33 C 182,-33 111,30 74,156 52,228 41,333 41,471 41,549 55,616 82,672 116,743 169,778 240,778 293,778 328,747 346,684 L 369,508 C 377,444 397,411 428,410 L 1163,1116 C 1174,1127 1196,1133 1229,1133 1271,1133 1292,1118 1292,1087 L 1292,965 C 1292,929 1282,901 1262,881 L 442,47 C 390,-6 338,-33 285,-33 Z"/>
  </g>
  <g id="bullet-char-template-9679" transform="scale(0.00048828125,-0.00048828125)">
   <path d="M 813,0 C 632,0 489,54 383,161 276,268 223,411 223,592 223,773 276,916 383,1023 489,1130 632,1184 813,1184 992,1184 1136,1130 1245,1023 1353,916 1407,772 1407,592 1407,412 1353,268 1245,161 1136,54 992,0 813,0 Z"/>
  </g>
  <g id="bullet-char-template-8226" transform="scale(0.00048828125,-0.00048828125)">
   <path d="M 346,457 C 273,457 209,483 155,535 101,586 74,649 74,723 74,796 101,859 155,911 209,963 273,989 346,989 419,989 480,963 531,910 582,859 608,796 608,723 608,648 583,586 532,535 482,483 420,457 346,457 Z"/>
  </g>
  <g id="bullet-char-template-8211" transform="scale(0.00048828125,-0.00048828125)">
   <path d="M -4,459 L 1135,459 1135,606 -4,606 -4,459 Z"/>
  </g>
  <g id="bullet-char-template-61548" transform="scale(0.00048828125,-0.00048828125)">
   <path d="M 173,740 C 173,903 231,1043 346,1159 462,1274 601,1332 765,1332 928,1332 1067,1274 1183,1159 1299,1043 1357,903 1357,740 1357,577 1299,437 1183,322 1067,206 928,148 765,148 601,148 462,206 346,322 231,437 173,577 173,740 Z"/>
  </g>
 </defs>
 <g>
  <g id="id2" class="Master_Slide">
   <g id="bg-id2" class="Background"/>
   <g id="bo-id2" class="BackgroundObjects"/>
  </g>
 </g>
 <g class="SlideGroup">
  <g>
   <g id="container-id1">
    <g id="id1" class="Slide" clip-path="url(#presentation_clip_path)">
     <g class="Page">
      <g class="Graphic">
       <g id="id3">
        <rect class="BoundingBox" stroke="none" fill="none" x="2000" y="3000" width="17771" height="16001"/>
        <path fill="rgb(65,119,190)" stroke="none" d="M 4510,18747 C 4510,18862 4407,18956 4281,18956 L 4168,18956 C 4042,18956 3939,18862 3939,18747 L 3939,13023 C 3939,12908 4041,12814 4168,12814 L 4281,12814 C 4406,12814 4510,12908 4510,13023 L 4510,18747 4510,18747 Z"/>
        <path fill="rgb(65,119,190)" stroke="none" d="M 11695,11838 L 11351,10845 C 11270,10613 11113,10242 11001,10022 L 10393,8826 C 10281,8606 10061,8271 9905,8081 L 9814,7972 C 9658,7782 9338,7563 9104,7486 L 9010,7455 6650,7455 6557,7486 C 6322,7563 6002,7781 5846,7972 L 5756,8081 C 5599,8271 5379,8607 5268,8826 L 4659,10022 C 4548,10242 4391,10613 4309,10845 L 3965,11838 C 3885,12070 4003,12342 4230,12441 L 4288,12467 C 4514,12565 4781,12461 4881,12237 L 5176,11577 C 5276,11352 5456,11021 5575,10842 5695,10662 5835,10458 5887,10387 5940,10317 6012,10231 6046,10197 6082,10164 6144,10148 6184,10163 6225,10178 6252,10223 6245,10263 6238,10303 6209,10462 6181,10615 6153,10769 6080,11091 6019,11330 L 5804,12172 C 5743,12411 5643,12802 5582,13040 L 5145,14748 C 5084,14987 5023,15272 5009,15382 4996,15491 5181,15633 5419,15697 L 5656,15759 C 5894,15822 6160,15883 6246,15894 6333,15904 6409,15987 6416,16078 6423,16169 6445,16444 6465,16689 L 6632,18509 C 6652,18754 6870,18955 7117,18955 L 8542,18955 C 8789,18955 9007,18754 9028,18509 L 9194,16689 C 9214,16444 9236,16169 9243,16078 9250,15987 9326,15904 9413,15894 9500,15883 9765,15823 10004,15759 L 10241,15697 C 10479,15634 10663,15492 10650,15382 10637,15272 10576,14987 10515,14748 L 10077,13040 C 10016,12802 9916,12411 9855,12172 L 9640,11330 C 9579,11091 9507,10769 9478,10615 9450,10462 9422,10303 9414,10263 9407,10223 9434,10178 9475,10163 9516,10148 9578,10163 9613,10197 9648,10231 9720,10317 9772,10387 9825,10458 9965,10662 10084,10842 10203,11021 10383,11352 10484,11577 L 10778,12237 C 10879,12462 11146,12566 11371,12467 L 11430,12441 C 11656,12343 11774,12071 11694,11838 L 11695,11838 Z"/>
        <path fill="rgb(65,119,190)" stroke="none" d="M 17158,18747 C 17158,18862 17261,18956 17387,18956 L 17501,18956 C 17626,18956 17730,18862 17730,18747 L 17730,13076 C 17730,12962 17627,12868 17501,12868 L 17387,12868 C 17262,12868 17158,12962 17158,13076 L 17158,18747 17158,18747 Z"/>
        <path fill="rgb(65,119,190)" stroke="none" d="M 10870,10874 C 10905,10504 11010,9856 11102,9435 L 11243,8786 C 11335,8364 11582,7848 11792,7637 12002,7427 12521,7190 12945,7110 L 13276,7049 13715,7774 14053,8241 14162,8312 14294,8364 14426,8320 14532,8246 14872,7774 15312,7049 15642,7110 C 16067,7190 16585,7427 16795,7637 17005,7848 17252,8364 17344,8786 L 17486,9435 C 17577,9857 17682,10504 17717,10874 17753,11243 17802,11768 17828,12039 17853,12310 17646,12557 17369,12588 17091,12619 16819,12441 16764,12193 16709,11946 16635,11490 16601,11179 16566,10869 16502,10445 16456,10236 16412,10028 16342,9787 16303,9702 16263,9617 16189,9550 16139,9553 16090,9556 16049,9617 16049,9688 16049,9760 16051,10106 16052,10456 16054,10807 16056,11447 16058,11879 L 16061,13624 15605,18171 C 15606,18602 15266,18955 14848,18955 14431,18955 14153,18955 13736,18955 13319,18955 12979,18602 12979,18171 L 12523,13624 12527,11879 C 12528,11447 12530,10807 12532,10456 12534,10105 12536,9760 12536,9688 12536,9617 12496,9556 12445,9553 12396,9550 12323,9617 12282,9702 12242,9787 12172,10028 12128,10236 12084,10445 12018,10869 11984,11179 11949,11490 11876,11946 11820,12193 11766,12441 11493,12618 11216,12588 10938,12557 10731,12310 10757,12039 10782,11767 10832,11243 10867,10874 L 10870,10874 Z"/>
        <path fill="rgb(65,119,190)" stroke="none" d="M 15885,5163 C 15885,5448 15810,5728 15668,5975 15525,6222 15320,6428 15073,6570 14826,6713 14546,6788 14260,6788 13975,6788 13695,6713 13448,6570 13201,6428 12996,6222 12853,5975 12711,5728 12635,5448 12635,5163 12635,4878 12711,4598 12853,4351 12996,4104 13201,3899 13448,3756 13695,3613 13975,3538 14260,3538 14546,3538 14826,3613 15073,3756 15320,3899 15525,4104 15668,4351 15810,4598 15885,4878 15885,5163 L 15885,5163 Z"/>
        <path fill="rgb(65,119,190)" stroke="none" d="M 9455,5537 C 9455,5822 9379,6102 9237,6349 9094,6596 8889,6801 8642,6944 8395,7087 8115,7162 7830,7162 7544,7162 7264,7087 7017,6944 6770,6801 6565,6596 6422,6349 6280,6102 6205,5822 6205,5537 6205,5252 6280,4972 6422,4725 6565,4478 6770,4273 7017,4130 7264,3987 7544,3912 7830,3912 8115,3912 8395,3987 8642,4130 8889,4273 9094,4478 9237,4725 9379,4972 9455,5252 9455,5537 L 9455,5537 Z"/>
       </g>
      </g>
     </g>
    </g>
   </g>
  </g>
 </g>
</svg>