<?xml version="1.0" encoding="UTF-8"?>
<!DOCTYPE svg PUBLIC "-//W3C//DTD SVG 1.1//EN" "http://www.w3.org/Graphics/SVG/1.1/DTD/svg11.dtd">
<svg version="1.2" width="297mm" height="210mm" viewBox="0 0 29700 21000" preserveAspectRatio="xMidYMid" fill-rule="evenodd" stroke-width="28.222" stroke-linejoin="round" xmlns="http://www.w3.org/2000/svg" xmlns:ooo="http://xml.openoffice.org/svg/export" xmlns:xlink="http://www.w3.org/1999/xlink" xmlns:presentation="http://sun.com/xmlns/staroffice/presentation" xmlns:smil="http://www.w3.org/2001/SMIL20/" xmlns:anim="urn:oasis:names:tc:opendocument:xmlns:animation:1.0" xml:space="preserve">
 <defs class="ClipPathGroup">
  <clipPath id="presentation_clip_path" clipPathUnits="userSpaceOnUse">
   <rect x="0" y="0" width="29700" height="21000"/>
  </clipPath>
  <clipPath id="presentation_clip_path_shrink" clipPathUnits="userSpaceOnUse">
   <rect x="29" y="21" width="29641" height="20958"/>
  </clipPath>
 </defs>
 <defs class="TextShapeIndex">
  <g ooo:slide="id1" ooo:id-list="id3"/>
 </defs>
 <defs class="EmbeddedBulletChars">
  <g id="bullet-char-template-57356" transform="scale(0.00048828125,-0.00048828125)">
   <path d="M 580,1141 L 1163,571 580,0 -4,571 580,1141 Z"/>
  </g>
  <g id="bullet-char-template-57354" transform="scale(0.00048828125,-0.00048828125)">
   <path d="M 8,1128 L 1137,1128 1137,0 8,0 8,1128 Z"/>
  </g>
  <g id="bullet-char-template-10146" transform="scale(0.00048828125,-0.00048828125)">
   <path d="M 174,0 L 602,739 174,1481 1456,739 174,0 Z M 1358,739 L 309,1346 659,739 1358,739 Z"/>
  </g>
  <g id="bullet-char-template-10132" transform="scale(0.00048828125,-0.00048828125)">
   <path d="M 2015,739 L 1276,0 717,0 1260,543 174,543 174,936 1260,936 717,1481 1274,1481 2015,739 Z"/>
  </g>
  <g id="bullet-char-template-10007" transform="scale(0.00048828125,-0.00048828125)">
   <path d="M 0,-2 C -7,14 -16,27 -25,37 L 356,567 C 262,823 215,952 215,954 215,979 228,992 255,992 264,992 276,990 289,987 310,991 331,999 354,1012 L 381,999 492,748 772,1049 836,1024 860,1049 C 881,1039 901,1025 922,1006 886,937 835,863 770,784 769,783 710,716 594,584 L 774,223 C 774,196 753,168 711,139 L 727,119 C 717,90 699,76 672,76 641,76 570,178 457,381 L 164,-76 C 142,-110 111,-127 72,-127 30,-127 9,-110 8,-76 1,-67 -2,-52 -2,-32 -2,-23 -1,-13 0,-2 Z"/>
  </g>
  <g id="bullet-char-template-10004" transform="scale(0.00048828125,-0.00048828125)">
   <path d="M 285,-33 C 182,-33 111,30 74,156 52,228 41,333 41,471 41,549 55,616 82,672 116,743 169,778 240,778 293,778 328,747 346,684 L 369,508 C 377,444 397,411 428,410 L 1163,1116 C 1174,1127 1196,1133 1229,1133 1271,1133 1292,1118 1292,1087 L 1292,965 C 1292,929 1282,901 1262,881 L 442,47 C 390,-6 338,-33 285,-33 Z"/>
  </g>
  <g id="bullet-char-template-9679" transform="scale(0.00048828125,-0.00048828125)">
   <path d="M 813,0 C 632,0 489,54 383,161 276,268 223,411 223,592 223,773 276,916 383,1023 489,1130 632,1184 813,1184 992,1184 1136,1130 1245,1023 1353,916 1407,772 1407,592 1407,412 1353,268 1245,161 1136,54 992,0 813,0 Z"/>
  </g>
  <g id="bullet-char-template-8226" transform="scale(0.00048828125,-0.00048828125)">
   <path d="M 346,457 C 273,457 209,483 155,535 101,586 74,649 74,723 74,796 101,859 155,911 209,963 273,989 346,989 419,989 480,963 531,910 582,859 608,796 608,723 608,648 583,586 532,535 482,483 420,457 346,457 Z"/>
  </g>
  <g id="bullet-char-template-8211" transform="scale(0.00048828125,-0.00048828125)">
   <path d="M -4,459 L 1135,459 1135,606 -4,606 -4,459 Z"/>
  </g>
  <g id="bullet-char-template-61548" transform="scale(0.00048828125,-0.00048828125)">
   <path d="M 173,740 C 173,903 231,1043 346,1159 462,1274 601,1332 765,1332 928,1332 1067,1274 1183,1159 1299,1043 1357,903 1357,740 1357,577 1299,437 1183,322 1067,206 928,148 765,148 601,148 462,206 346,322 231,437 173,577 173,740 Z"/>
  </g>
 </defs>
 <g>
  <g id="id2" class="Master_Slide">
   <g id="bg-id2" class="Background"/>
   <g id="bo-id2" class="BackgroundObjects"/>
  </g>
 </g>
 <g class="SlideGroup">
  <g>
   <g id="container-id1">
    <g id="id1" class="Slide" clip-path="url(#presentation_clip_path)">
     <g class="Page">
      <g class="Graphic">
       <g id="id3">
        <rect class="BoundingBox" stroke="none" fill="none" x="1030" y="3000" width="17771" height="16001"/>
        <path fill="rgb(65,119,190)" stroke="none" d="M 6595,18747 C 6595,18862 6493,18956 6366,18956 L 6253,18956 C 6128,18956 6024,18862 6024,18747 L 6024,13023 C 6024,12908 6127,12814 6253,12814 L 6366,12814 C 6492,12814 6595,12908 6595,13023 L 6595,18747 6595,18747 Z"/>
        <path fill="rgb(65,119,190)" stroke="none" d="M 13780,11838 L 13436,10845 C 13356,10613 13198,10242 13086,10022 L 12478,8826 C 12367,8606 12146,8271 11990,8081 L 11900,7972 C 11743,7782 11423,7563 11189,7486 L 11095,7455 8736,7455 8642,7486 C 8408,7563 8088,7781 7931,7972 L 7841,8081 C 7684,8271 7464,8607 7353,8826 L 6745,10022 C 6633,10242 6476,10613 6395,10845 L 6051,11838 C 5970,12070 6089,12342 6315,12441 L 6373,12467 C 6600,12565 6867,12461 6967,12237 L 7261,11577 C 7362,11352 7541,11021 7661,10842 7780,10662 7921,10458 7973,10387 8026,10317 8097,10231 8132,10197 8167,10164 8229,10148 8270,10163 8310,10178 8338,10223 8331,10263 8324,10303 8294,10462 8266,10615 8238,10769 8165,11091 8104,11330 L 7890,12172 C 7829,12411 7729,12802 7668,13040 L 7230,14748 C 7169,14987 7108,15272 7095,15382 7082,15491 7266,15633 7504,15697 L 7741,15759 C 7980,15822 8245,15883 8332,15894 8418,15904 8494,15987 8501,16078 8508,16169 8531,16444 8551,16689 L 8717,18509 C 8737,18754 8956,18955 9202,18955 L 10628,18955 C 10874,18955 11093,18754 11113,18509 L 11279,16689 C 11299,16444 11322,16169 11329,16078 11336,15987 11412,15904 11498,15894 11585,15883 11850,15823 12089,15759 L 12326,15697 C 12565,15634 12748,15492 12735,15382 12722,15272 12661,14987 12600,14748 L 12162,13040 C 12101,12802 12001,12411 11940,12172 L 11726,11330 C 11665,11091 11592,10769 11564,10615 11536,10462 11507,10303 11499,10263 11492,10223 11520,10178 11560,10163 11601,10148 11664,10163 11698,10197 11734,10231 11805,10317 11857,10387 11910,10458 12050,10662 12169,10842 12289,11021 12468,11352 12569,11577 L 12863,12237 C 12964,12462 13231,12566 13457,12467 L 13515,12441 C 13741,12343 13860,12071 13779,11838 L 13780,11838 Z"/>
        <path fill="rgb(65,119,190)" stroke="none" d="M 11541,5537 C 11541,5822 11466,6102 11323,6349 11181,6596 10975,6801 10728,6944 10481,7087 10201,7162 9916,7162 9631,7162 9350,7087 9103,6944 8856,6801 8651,6596 8509,6349 8366,6102 8291,5822 8291,5537 8291,5252 8366,4972 8509,4725 8651,4478 8856,4273 9103,4130 9350,3987 9631,3912 9916,3912 10201,3912 10481,3987 10728,4130 10975,4273 11181,4478 11323,4725 11466,4972 11541,5252 11541,5537 L 11541,5537 Z"/>
       </g>
      </g>
     </g>
    </g>
   </g>
  </g>
 </g>
</svg>