<?xml version="1.0" encoding="UTF-8"?>
<!DOCTYPE svg PUBLIC "-//W3C//DTD SVG 1.1//EN" "http://www.w3.org/Graphics/SVG/1.1/DTD/svg11.dtd">
<svg version="1.2" width="297mm" height="210mm" viewBox="0 0 29700 21000" preserveAspectRatio="xMidYMid" fill-rule="evenodd" stroke-width="28.222" stroke-linejoin="round" xmlns="http://www.w3.org/2000/svg" xmlns:ooo="http://xml.openoffice.org/svg/export" xmlns:xlink="http://www.w3.org/1999/xlink" xmlns:presentation="http://sun.com/xmlns/staroffice/presentation" xmlns:smil="http://www.w3.org/2001/SMIL20/" xmlns:anim="urn:oasis:names:tc:opendocument:xmlns:animation:1.0" xml:space="preserve">
 <defs class="ClipPathGroup">
  <clipPath id="presentation_clip_path" clipPathUnits="userSpaceOnUse">
   <rect x="0" y="0" width="29700" height="21000"/>
  </clipPath>
  <clipPath id="presentation_clip_path_shrink" clipPathUnits="userSpaceOnUse">
   <rect x="29" y="21" width="29641" height="20958"/>
  </clipPath>
 </defs>
 <defs class="TextShapeIndex">
  <g ooo:slide="id1" ooo:id-list="id3"/>
 </defs>
 <defs class="EmbeddedBulletChars">
  <g id="bullet-char-template-57356" transform="scale(0.00048828125,-0.00048828125)">
   <path d="M 580,1141 L 1163,571 580,0 -4,571 580,1141 Z"/>
  </g>
  <g id="bullet-char-template-57354" transform="scale(0.00048828125,-0.00048828125)">
   <path d="M 8,1128 L 1137,1128 1137,0 8,0 8,1128 Z"/>
  </g>
  <g id="bullet-char-template-10146" transform="scale(0.00048828125,-0.00048828125)">
   <path d="M 174,0 L 602,739 174,1481 1456,739 174,0 Z M 1358,739 L 309,1346 659,739 1358,739 Z"/>
  </g>
  <g id="bullet-char-template-10132" transform="scale(0.00048828125,-0.00048828125)">
   <path d="M 2015,739 L 1276,0 717,0 1260,543 174,543 174,936 1260,936 717,1481 1274,1481 2015,739 Z"/>
  </g>
  <g id="bullet-char-template-10007" transform="scale(0.00048828125,-0.00048828125)">
   <path d="M 0,-2 C -7,14 -16,27 -25,37 L 356,567 C 262,823 215,952 215,954 215,979 228,992 255,992 264,992 276,990 289,987 310,991 331,999 354,1012 L 381,999 492,748 772,1049 836,1024 860,1049 C 881,1039 901,1025 922,1006 886,937 835,863 770,784 769,783 710,716 594,584 L 774,223 C 774,196 753,168 711,139 L 727,119 C 717,90 699,76 672,76 641,76 570,178 457,381 L 164,-76 C 142,-110 111,-127 72,-127 30,-127 9,-110 8,-76 1,-67 -2,-52 -2,-32 -2,-23 -1,-13 0,-2 Z"/>
  </g>
  <g id="bullet-char-template-10004" transform="scale(0.00048828125,-0.00048828125)">
   <path d="M 285,-33 C 182,-33 111,30 74,156 52,228 41,333 41,471 41,549 55,616 82,672 116,743 169,778 240,778 293,778 328,747 346,684 L 369,508 C 377,444 397,411 428,410 L 1163,1116 C 1174,1127 1196,1133 1229,1133 1271,1133 1292,1118 1292,1087 L 1292,965 C 1292,929 1282,901 1262,881 L 442,47 C 390,-6 338,-33 285,-33 Z"/>
  </g>
  <g id="bullet-char-template-9679" transform="scale(0.00048828125,-0.00048828125)">
   <path d="M 813,0 C 632,0 489,54 383,161 276,268 223,411 223,592 223,773 276,916 383,1023 489,1130 632,1184 813,1184 992,1184 1136,1130 1245,1023 1353,916 1407,772 1407,592 1407,412 1353,268 1245,161 1136,54 992,0 813,0 Z"/>
  </g>
  <g id="bullet-char-template-8226" transform="scale(0.00048828125,-0.00048828125)">
   <path d="M 346,457 C 273,457 209,483 155,535 101,586 74,649 74,723 74,796 101,859 155,911 209,963 273,989 346,989 419,989 480,963 531,910 582,859 608,796 608,723 608,648 583,586 532,535 482,483 420,457 346,457 Z"/>
  </g>
  <g id="bullet-char-template-8211" transform="scale(0.00048828125,-0.00048828125)">
   <path d="M -4,459 L 1135,459 1135,606 -4,606 -4,459 Z"/>
  </g>
  <g id="bullet-char-template-61548" transform="scale(0.00048828125,-0.00048828125)">
   <path d="M 173,740 C 173,903 231,1043 346,1159 462,1274 601,1332 765,1332 928,1332 1067,1274 1183,1159 1299,1043 1357,903 1357,740 1357,577 1299,437 1183,322 1067,206 928,148 765,148 601,148 462,206 346,322 231,437 173,577 173,740 Z"/>
  </g>
 </defs>
 <g>
  <g id="id2" class="Master_Slide">
   <g id="bg-id2" class="Background"/>
   <g id="bo-id2" class="BackgroundObjects"/>
  </g>
 </g>
 <g class="SlideGroup">
  <g>
   <g id="container-id1">
    <g id="id1" class="Slide" clip-path="url(#presentation_clip_path)">
     <g class="Page">
      <g class="Graphic">
       <g id="id3">
        <rect class="BoundingBox" stroke="none" fill="none" x="2020" y="3000" width="17781" height="16001"/>
        <defs>
         <clipPath id="clip_path_1" clipPathUnits="userSpaceOnUse">
          <path d="M 2020,3000 L 19800,3000 19800,19000 2020,19000 2020,3000 Z"/>
         </clipPath>
        </defs>
        <g clip-path="url(#clip_path_1)">
         <path fill="rgb(65,119,190)" stroke="none" d="M 15572,6659 C 16583,6659 17401,5840 17401,4829 17401,3819 16583,3000 15572,3000 14561,3000 13742,3819 13742,4829 13742,5840 14561,6659 15572,6659 L 15572,6659 Z"/>
         <path fill="rgb(65,119,190)" stroke="none" d="M 17490,6974 L 13653,6974 C 13089,6974 12631,7432 12631,7996 L 12631,9868 C 13562,9950 14295,10733 14295,11685 14295,12135 14132,12548 13861,12867 14174,13026 14389,13351 14389,13726 L 14389,16021 C 14389,16387 14183,16703 13883,16867 L 13883,17979 C 13883,18543 14341,19001 14905,19001 L 16239,19001 C 16803,19001 17261,18543 17261,17979 L 17261,13682 C 17261,13609 17320,13550 17393,13550 L 17491,13550 C 18056,13550 18514,13092 18514,12528 L 18514,7996 C 18514,7432 18056,6974 17491,6974 L 17490,6974 Z"/>
         <path fill="rgb(65,119,190)" stroke="none" d="M 12470,10396 C 13181,10396 13758,10973 13758,11684 13758,12396 13181,12972 12470,12972 11759,12972 11182,12396 11182,11684 11182,10973 11759,10396 12470,10396 Z M 13426,13299 C 13661,13299 13853,13490 13853,13725 L 13853,16021 C 13853,16257 13661,16448 13426,16448 L 13253,16448 13253,18574 C 13253,18810 13061,19001 12826,19001 L 12067,19001 C 11831,19001 11640,18810 11640,18574 L 11640,16448 11514,16448 C 11278,16448 11087,16257 11087,16021 L 11087,13725 C 11087,13490 11278,13299 11514,13299 L 13424,13299 Z"/>
         <path fill="rgb(65,119,190)" stroke="none" d="M 10621,10207 C 10677,10446 10669,10695 10598,10930 10528,11164 10396,11376 10218,11543 10039,11711 9819,11829 9581,11884 9342,11940 9093,11932 8859,11862 8624,11791 8412,11659 8245,11481 8077,11302 7959,11082 7903,10844 7848,10605 7856,10356 7926,10122 7997,9887 8129,9676 8307,9508 8486,9340 8706,9223 8944,9167 9183,9111 9432,9119 9666,9190 9901,9261 10113,9392 10280,9571 10448,9749 10566,9969 10621,10207 L 10621,10207 Z"/>
         <path fill="rgb(65,119,190)" stroke="none" d="M 6103,7044 C 7083,7044 7877,6250 7877,5270 7877,4291 7082,3497 6103,3497 5124,3497 4330,4291 4330,5270 4330,6250 5123,7044 6103,7044 L 6103,7044 Z"/>
         <path fill="rgb(65,119,190)" stroke="none" d="M 10551,13725 C 10551,13438 10678,13180 10878,13004 L 10878,12772 C 10878,12498 10654,12274 10379,12274 L 8145,12274 C 7871,12274 7646,12498 7646,12772 L 7646,15457 C 7646,15732 7871,15956 8145,15956 L 8293,15956 8293,18501 C 8293,18776 8517,19000 8792,19000 L 9679,19000 C 9953,19000 10177,18776 10177,18501 L 10177,15956 10379,15956 C 10440,15956 10497,15943 10551,15924 L 10551,13725 10551,13725 Z"/>
         <path fill="rgb(65,119,190)" stroke="none" d="M 7110,15457 L 7110,12772 C 7110,12320 7401,11935 7806,11794 7510,11454 7329,11010 7329,10525 7329,9586 8003,8802 8892,8629 8818,7910 8211,7349 7472,7349 L 4838,7349 C 4826,7349 4813,7351 4800,7351 4782,7351 4764,7353 4747,7354 3954,7400 3325,8046 3305,8845 L 3305,12457 C 3305,12996 3773,13501 4313,13586 4383,13596 4433,13660 4422,13732 L 4422,18009 C 4422,18556 4866,19000 5413,19000 L 6695,19000 C 7243,19000 7686,18556 7686,18009 L 7686,16385 C 7345,16215 7110,15863 7110,15457 L 7110,15457 Z"/>
        </g>
       </g>
      </g>
     </g>
    </g>
   </g>
  </g>
 </g>
</svg>