<?xml version="1.0" encoding="UTF-8"?><svg id="Layer_1" xmlns="http://www.w3.org/2000/svg" viewBox="0 0 200 180"><defs><style>.cls-1{fill:#4177be;stroke-width:0px;}</style></defs><path class="cls-1" d="m152.44,41.16c11.37,0,20.58-9.21,20.58-20.58S163.81,0,152.44,0s-20.58,9.21-20.58,20.58,9.21,20.58,20.58,20.58Z"/><path class="cls-1" d="m174.02,44.71h-43.16c-6.35,0-11.5,5.15-11.5,11.5v21.06c10.47.92,18.72,9.73,18.72,20.44,0,5.06-1.84,9.7-4.89,13.29,3.52,1.79,5.94,5.45,5.94,9.67v25.82c0,4.11-2.31,7.67-5.69,9.51v12.51c0,6.35,5.15,11.5,11.5,11.5h15c6.35,0,11.5-5.15,11.5-11.5v-48.34c0-.82.66-1.48,1.48-1.48h1.11c6.35,0,11.5-5.15,11.5-11.5v-50.98c0-6.35-5.15-11.5-11.5-11.5Z"/><path class="cls-1" d="m117.55,83.21c8,0,14.49,6.49,14.49,14.49s-6.49,14.49-14.49,14.49-14.49-6.49-14.49-14.49,6.49-14.49,14.49-14.49m10.75,32.65c2.65,0,4.8,2.15,4.8,4.8v25.83c0,2.65-2.15,4.8-4.8,4.8h-1.95v23.92c0,2.65-2.15,4.8-4.8,4.8h-8.54c-2.65,0-4.8-2.15-4.8-4.8v-23.92h-1.42c-2.65,0-4.8-2.15-4.8-4.8v-25.83c0-2.65,2.15-4.8,4.8-4.8h21.49"/><circle class="cls-1" cx="81.47" cy="84.66" r="15.7" transform="translate(-17.16 20.81) rotate(-13.18)"/><path class="cls-1" d="m45.93,45.49c11.02,0,19.95-8.93,19.95-19.95S56.94,5.59,45.93,5.59s-19.95,8.93-19.95,19.95,8.93,19.95,19.95,19.95Z"/><path class="cls-1" d="m95.96,120.66c0-3.23,1.43-6.13,3.68-8.12v-2.6c0-3.09-2.52-5.61-5.61-5.61h-25.13c-3.09,0-5.61,2.52-5.61,5.61v30.2c0,3.09,2.52,5.61,5.61,5.61h1.66v28.64c0,3.09,2.52,5.61,5.61,5.61h9.98c3.09,0,5.61-2.52,5.61-5.61v-28.64h2.27c.68,0,1.32-.14,1.93-.36v-24.73Z"/><path class="cls-1" d="m57.25,140.14v-30.2c0-5.09,3.28-9.42,7.83-11.01-3.33-3.82-5.36-8.82-5.36-14.27,0-10.57,7.58-19.39,17.58-21.33-.83-8.09-7.66-14.4-15.97-14.4h-29.63c-.14,0-.28.02-.43.02-.2,0-.4.02-.6.03-8.91.52-15.99,7.79-16.21,16.78v40.63c0,6.07,5.26,11.75,11.33,12.7.79.12,1.35.84,1.23,1.64v48.12c0,6.16,4.99,11.15,11.15,11.15h14.42c6.16,0,11.15-4.99,11.15-11.15v-18.27c-3.84-1.91-6.49-5.87-6.49-10.44Z"/></svg>