<?xml version="1.0" encoding="UTF-8"?>
<!DOCTYPE svg PUBLIC "-//W3C//DTD SVG 1.1//EN" "http://www.w3.org/Graphics/SVG/1.1/DTD/svg11.dtd">
<svg version="1.2" width="297mm" height="210mm" viewBox="0 0 29700 21000" preserveAspectRatio="xMidYMid" fill-rule="evenodd" stroke-width="28.222" stroke-linejoin="round" xmlns="http://www.w3.org/2000/svg" xmlns:ooo="http://xml.openoffice.org/svg/export" xmlns:xlink="http://www.w3.org/1999/xlink" xmlns:presentation="http://sun.com/xmlns/staroffice/presentation" xmlns:smil="http://www.w3.org/2001/SMIL20/" xmlns:anim="urn:oasis:names:tc:opendocument:xmlns:animation:1.0" xml:space="preserve">
 <defs class="ClipPathGroup">
  <clipPath id="presentation_clip_path" clipPathUnits="userSpaceOnUse">
   <rect x="0" y="0" width="29700" height="21000"/>
  </clipPath>
  <clipPath id="presentation_clip_path_shrink" clipPathUnits="userSpaceOnUse">
   <rect x="29" y="21" width="29641" height="20958"/>
  </clipPath>
 </defs>
 <defs class="TextShapeIndex">
  <g ooo:slide="id1" ooo:id-list="id3 id4"/>
 </defs>
 <defs class="EmbeddedBulletChars">
  <g id="bullet-char-template-57356" transform="scale(0.00048828125,-0.00048828125)">
   <path d="M 580,1141 L 1163,571 580,0 -4,571 580,1141 Z"/>
  </g>
  <g id="bullet-char-template-57354" transform="scale(0.00048828125,-0.00048828125)">
   <path d="M 8,1128 L 1137,1128 1137,0 8,0 8,1128 Z"/>
  </g>
  <g id="bullet-char-template-10146" transform="scale(0.00048828125,-0.00048828125)">
   <path d="M 174,0 L 602,739 174,1481 1456,739 174,0 Z M 1358,739 L 309,1346 659,739 1358,739 Z"/>
  </g>
  <g id="bullet-char-template-10132" transform="scale(0.00048828125,-0.00048828125)">
   <path d="M 2015,739 L 1276,0 717,0 1260,543 174,543 174,936 1260,936 717,1481 1274,1481 2015,739 Z"/>
  </g>
  <g id="bullet-char-template-10007" transform="scale(0.00048828125,-0.00048828125)">
   <path d="M 0,-2 C -7,14 -16,27 -25,37 L 356,567 C 262,823 215,952 215,954 215,979 228,992 255,992 264,992 276,990 289,987 310,991 331,999 354,1012 L 381,999 492,748 772,1049 836,1024 860,1049 C 881,1039 901,1025 922,1006 886,937 835,863 770,784 769,783 710,716 594,584 L 774,223 C 774,196 753,168 711,139 L 727,119 C 717,90 699,76 672,76 641,76 570,178 457,381 L 164,-76 C 142,-110 111,-127 72,-127 30,-127 9,-110 8,-76 1,-67 -2,-52 -2,-32 -2,-23 -1,-13 0,-2 Z"/>
  </g>
  <g id="bullet-char-template-10004" transform="scale(0.00048828125,-0.00048828125)">
   <path d="M 285,-33 C 182,-33 111,30 74,156 52,228 41,333 41,471 41,549 55,616 82,672 116,743 169,778 240,778 293,778 328,747 346,684 L 369,508 C 377,444 397,411 428,410 L 1163,1116 C 1174,1127 1196,1133 1229,1133 1271,1133 1292,1118 1292,1087 L 1292,965 C 1292,929 1282,901 1262,881 L 442,47 C 390,-6 338,-33 285,-33 Z"/>
  </g>
  <g id="bullet-char-template-9679" transform="scale(0.00048828125,-0.00048828125)">
   <path d="M 813,0 C 632,0 489,54 383,161 276,268 223,411 223,592 223,773 276,916 383,1023 489,1130 632,1184 813,1184 992,1184 1136,1130 1245,1023 1353,916 1407,772 1407,592 1407,412 1353,268 1245,161 1136,54 992,0 813,0 Z"/>
  </g>
  <g id="bullet-char-template-8226" transform="scale(0.00048828125,-0.00048828125)">
   <path d="M 346,457 C 273,457 209,483 155,535 101,586 74,649 74,723 74,796 101,859 155,911 209,963 273,989 346,989 419,989 480,963 531,910 582,859 608,796 608,723 608,648 583,586 532,535 482,483 420,457 346,457 Z"/>
  </g>
  <g id="bullet-char-template-8211" transform="scale(0.00048828125,-0.00048828125)">
   <path d="M -4,459 L 1135,459 1135,606 -4,606 -4,459 Z"/>
  </g>
  <g id="bullet-char-template-61548" transform="scale(0.00048828125,-0.00048828125)">
   <path d="M 173,740 C 173,903 231,1043 346,1159 462,1274 601,1332 765,1332 928,1332 1067,1274 1183,1159 1299,1043 1357,903 1357,740 1357,577 1299,437 1183,322 1067,206 928,148 765,148 601,148 462,206 346,322 231,437 173,577 173,740 Z"/>
  </g>
 </defs>
 <g>
  <g id="id2" class="Master_Slide">
   <g id="bg-id2" class="Background"/>
   <g id="bo-id2" class="BackgroundObjects"/>
  </g>
 </g>
 <g class="SlideGroup">
  <g>
   <g id="container-id1">
    <g id="id1" class="Slide" clip-path="url(#presentation_clip_path)">
     <g class="Page">
      <g class="Graphic">
       <g id="id3">
        <rect class="BoundingBox" stroke="none" fill="none" x="17000" y="7700" width="10001" height="11351"/>
        <path fill="rgb(176,59,94)" stroke="none" d="M 26955,16329 L 26955,15350 C 26723,15702 25677,15979 24353,16039 24314,16433 24218,16815 24069,17175 25684,17142 26955,16776 26955,16330 L 26955,16329 Z"/>
        <path fill="rgb(176,59,94)" stroke="none" d="M 22656,18943 C 23018,18982 23414,19005 23829,19005 25555,19005 26955,18625 26955,18156 L 26955,17177 C 26693,17575 25393,17878 23829,17878 23784,17878 23739,17878 23695,17878 23547,18098 23377,18306 23186,18497 23020,18663 22843,18811 22656,18944 L 22656,18943 Z"/>
        <path fill="rgb(176,59,94)" stroke="none" d="M 17045,15708 C 17045,17529 18522,19005 20342,19005 22163,19005 23640,17529 23640,15708 23640,13888 22163,12411 20342,12411 18522,12411 17045,13888 17045,15708 L 17045,15708 Z"/>
        <path fill="rgb(255,255,255)" stroke="none" d="M 18414,16685 L 18414,16365 C 18466,16328 18529,16281 18604,16223 18678,16166 18756,16102 18837,16032 18918,15963 18993,15892 19063,15820 19133,15748 19190,15679 19233,15615 19277,15551 19299,15496 19299,15450 19299,15404 19287,15359 19264,15319 19241,15279 19209,15248 19170,15223 19132,15200 19087,15188 19041,15188 18994,15188 18950,15200 18910,15223 18870,15247 18839,15278 18815,15319 18791,15359 18779,15403 18779,15450 L 18420,15450 C 18420,15333 18449,15228 18505,15134 18562,15041 18638,14967 18732,14912 18826,14857 18929,14830 19041,14830 19152,14830 19258,14858 19351,14913 19445,14968 19520,15043 19576,15137 19632,15232 19659,15335 19659,15450 19659,15510 19650,15567 19632,15622 19614,15678 19588,15733 19554,15788 19520,15843 19479,15899 19431,15956 19382,16013 19328,16072 19268,16132 19207,16194 19142,16258 19073,16326 L 19663,16326 19663,16685 18414,16685 18414,16685 Z"/>
        <path fill="rgb(255,255,255)" stroke="none" d="M 20544,16719 C 20425,16719 20318,16690 20222,16632 20126,16575 20050,16498 19994,16402 19938,16306 19910,16201 19910,16087 L 20269,16087 C 20269,16138 20282,16184 20306,16224 20331,16266 20364,16298 20406,16322 20448,16347 20494,16359 20544,16359 20595,16359 20639,16348 20680,16322 20722,16298 20754,16266 20779,16224 20804,16183 20816,16137 20816,16087 20816,16038 20806,15991 20786,15948 20765,15905 20731,15871 20681,15846 20632,15821 20563,15807 20477,15807 L 20000,15807 20199,14862 21108,14862 21108,15222 20491,15222 20444,15448 20546,15450 C 20670,15455 20779,15486 20873,15543 20967,15601 21041,15677 21095,15771 21149,15866 21176,15971 21176,16087 21176,16173 21159,16254 21127,16331 21095,16407 21050,16474 20992,16532 20934,16591 20868,16636 20791,16669 20714,16703 20632,16719 20545,16719 L 20544,16719 Z"/>
        <path fill="rgb(255,255,255)" stroke="none" d="M 22328,16685 L 22026,16685 21824,16338 21708,16476 21708,16685 21446,16685 21446,15259 21708,15259 21708,16068 21987,15735 22330,15735 22004,16125 22328,16685 22328,16685 Z"/>
        <path fill="rgb(176,59,94)" stroke="none" d="M 23829,13640 C 23819,13640 23809,13640 23800,13640 24103,14141 24299,14713 24359,15324 25832,15256 26955,14908 26955,14488 26955,14020 25555,13640 23829,13640 L 23829,13640 Z"/>
       </g>
      </g>
      <g class="Graphic">
       <g id="id4">
        <rect class="BoundingBox" stroke="none" fill="none" x="2000" y="3000" width="17771" height="16001"/>
        <path fill="rgb(65,119,190)" stroke="none" d="M 11538,6683 C 12544,6683 13358,5869 13358,4863 13358,3858 12543,3044 11538,3044 10534,3044 9719,3858 9719,4863 9719,5869 10533,6683 11538,6683 L 11538,6683 Z"/>
        <path fill="rgb(255,255,255)" stroke="none" d="M 8854,7772 C 8000,7772 7307,8465 7307,9319 7307,10173 8000,10866 8854,10866 9708,10866 10401,10173 10401,9319 10401,8464 9708,7772 8854,7772 L 8854,7772 8854,7772 Z"/>
        <path fill="rgb(79,115,115)" stroke="none" d="M 10225,9319 C 10225,9559 10161,9795 10041,10004 9921,10212 9748,10385 9539,10505 9331,10626 9095,10689 8854,10689 8614,10689 8377,10626 8169,10505 7961,10385 7788,10212 7668,10004 7547,9795 7484,9559 7484,9319 7484,9078 7547,8842 7668,8634 7788,8425 7961,8252 8169,8132 8377,8012 8614,7949 8854,7949 9095,7949 9331,8012 9539,8132 9748,8252 9921,8425 10041,8634 10161,8842 10225,9078 10225,9319 L 10225,9319 Z"/>
        <path fill="rgb(255,255,255)" stroke="none" d="M 8845,9731 C 8853,9717 8860,9702 8866,9686 8872,9669 8875,9652 8875,9634 8875,9598 8869,9566 8861,9537 L 9161,9537 9161,9352 8746,9352 C 8735,9341 8725,9329 8714,9319 8686,9292 8660,9266 8636,9237 8612,9209 8592,9178 8577,9145 8562,9111 8554,9071 8554,9025 8554,8970 8567,8919 8594,8874 8622,8828 8658,8792 8704,8764 8750,8737 8800,8724 8855,8724 8910,8724 8961,8737 9007,8764 9053,8792 9090,8828 9117,8874 9144,8920 9158,8970 9158,9025 L 9427,9025 C 9427,8947 9412,8872 9383,8803 9354,8734 9312,8674 9260,8621 9207,8569 9146,8528 9077,8498 9008,8468 8934,8453 8855,8453 8776,8453 8702,8468 8634,8498 8566,8528 8505,8569 8452,8622 8399,8675 8358,8735 8328,8804 8298,8872 8283,8947 8283,9025 8283,9065 8289,9102 8302,9137 8314,9171 8331,9203 8351,9233 8372,9263 8395,9291 8418,9318 8429,9330 8440,9341 8450,9352 L 8309,9352 8309,9537 8586,9537 C 8588,9542 8591,9548 8592,9552 8606,9584 8606,9612 8593,9639 8580,9664 8559,9686 8528,9704 8497,9723 8463,9736 8424,9746 8385,9755 8346,9760 8309,9760 L 8309,10029 9404,10029 9404,9760 8819,9760 C 8828,9753 8837,9743 8845,9730 L 8845,9731 Z"/>
        <path fill="rgb(65,119,190)" stroke="none" d="M 14442,7808 C 14360,7411 14047,7098 13650,7017 13584,7004 13516,6996 13445,6996 L 9630,6996 C 9560,6996 9491,7004 9425,7017 9193,7065 8990,7190 8845,7366 8825,7391 8805,7417 8787,7445 8751,7499 8719,7557 8693,7617 8670,7672 8653,7729 8639,7789 8710,7779 8782,7772 8854,7772 9708,7772 10401,8465 10401,9319 10401,10173 9708,10866 8854,10866 8772,10866 8692,10858 8614,10845 L 8614,12519 C 8614,13080 9069,13535 9630,13535 L 9729,13535 C 9801,13535 9859,13594 9859,13666 L 9859,17939 C 9859,18395 10160,18782 10574,18910 10606,18920 10638,18928 10671,18935 10737,18948 10805,18955 10876,18955 L 12202,18955 C 12272,18955 12341,18948 12407,18935 12440,18928 12473,18920 12505,18910 12918,18781 13219,18395 13219,17939 L 13219,13666 C 13219,13594 13277,13535 13350,13535 L 13448,13535 C 14009,13535 14465,13080 14465,12519 L 14465,8012 C 14465,7942 14458,7873 14444,7807 L 14442,7808 Z"/>
       </g>
      </g>
     </g>
    </g>
   </g>
  </g>
 </g>
</svg>