<?xml version="1.0" encoding="UTF-8"?><svg id="Layer_1" xmlns="http://www.w3.org/2000/svg" viewBox="0 0 200 180"><defs><style>.cls-1{fill:#4f7373;}.cls-1,.cls-2,.cls-3,.cls-4{stroke-width:0px;}.cls-2{fill:#4177be;}.cls-3{fill:#b25f24;}.cls-4{fill:#fff;}</style></defs><path class="cls-2" d="m152.44,41.16c11.37,0,20.58-9.21,20.58-20.58S163.81,0,152.44,0s-20.58,9.21-20.58,20.58,9.21,20.58,20.58,20.58Z"/><path class="cls-2" d="m117.55,83.21c8,0,14.49,6.49,14.49,14.49s-6.49,14.49-14.49,14.49-14.49-6.49-14.49-14.49,6.49-14.49,14.49-14.49m10.75,32.65c2.65,0,4.8,2.15,4.8,4.8v25.83c0,2.65-2.15,4.8-4.8,4.8h-1.95v23.92c0,2.65-2.15,4.8-4.8,4.8h-8.54c-2.65,0-4.8-2.15-4.8-4.8v-23.92h-1.42c-2.65,0-4.8-2.15-4.8-4.8v-25.83c0-2.65,2.15-4.8,4.8-4.8h21.49"/><circle class="cls-2" cx="81.47" cy="84.66" r="15.7" transform="translate(-17.16 20.81) rotate(-13.18)"/><path class="cls-2" d="m45.93,45.49c11.02,0,19.95-8.93,19.95-19.95S56.94,5.59,45.93,5.59s-19.95,8.93-19.95,19.95,8.93,19.95,19.95,19.95Z"/><path class="cls-2" d="m95.96,120.66c0-3.23,1.43-6.13,3.68-8.12v-2.6c0-3.09-2.52-5.61-5.61-5.61h-25.13c-3.09,0-5.61,2.52-5.61,5.61v30.2c0,3.09,2.52,5.61,5.61,5.61h1.66v28.64c0,3.09,2.52,5.61,5.61,5.61h9.98c3.09,0,5.61-2.52,5.61-5.61v-28.64h2.27c.68,0,1.32-.14,1.93-.36v-24.73Z"/><path class="cls-4" d="m17.5,53.48C7.84,53.48,0,61.32,0,70.98s7.84,17.5,17.5,17.5,17.5-7.83,17.5-17.5-7.84-17.5-17.5-17.5h0Z"/><circle class="cls-1" cx="17.5" cy="70.98" r="15.5"/><path class="cls-4" d="m17.38,75.64c.09-.15.17-.32.24-.51.07-.19.1-.38.1-.58,0-.41-.06-.77-.15-1.1h3.39v-2.09h-4.7c-.12-.13-.23-.26-.36-.38-.31-.3-.61-.6-.88-.92-.27-.32-.5-.67-.67-1.05-.17-.38-.26-.83-.26-1.35,0-.62.15-1.2.46-1.71.31-.52.72-.93,1.24-1.24s1.09-.46,1.71-.46,1.2.15,1.72.46c.52.31.93.72,1.24,1.24s.46,1.09.46,1.71h3.05c0-.89-.17-1.73-.5-2.51-.33-.78-.8-1.46-1.39-2.06s-1.29-1.06-2.07-1.39c-.78-.34-1.62-.51-2.51-.51s-1.73.17-2.5.51c-.78.34-1.46.8-2.06,1.4s-1.06,1.28-1.4,2.06c-.34.77-.51,1.61-.51,2.5,0,.45.07.87.21,1.26.14.39.33.75.56,1.09.23.34.49.66.76.96.12.14.24.26.36.39h-1.6v2.09h3.14c.02.06.05.12.06.17.16.36.16.68.02.98s-.39.54-.74.74c-.35.21-.74.36-1.18.47-.44.11-.88.16-1.3.16v3.05h12.39v-3.05h-6.62c.1-.08.2-.19.29-.34Z"/><path class="cls-4" d="m182.5,53.48c-9.66,0-17.5,7.84-17.5,17.5s7.84,17.5,17.5,17.5,17.5-7.83,17.5-17.5-7.84-17.5-17.5-17.5h0Z"/><circle class="cls-3" cx="182.5" cy="70.98" r="15.5"/><path class="cls-4" d="m182.38,75.64c.09-.15.17-.32.24-.51.07-.19.1-.38.1-.58,0-.41-.06-.77-.15-1.1h3.39v-2.09h-4.7c-.12-.13-.23-.26-.36-.38-.31-.3-.61-.6-.88-.92-.27-.32-.5-.67-.67-1.05-.17-.38-.26-.83-.26-1.35,0-.62.15-1.2.46-1.71.31-.52.72-.93,1.24-1.24s1.09-.46,1.71-.46,1.2.15,1.72.46c.52.31.93.72,1.24,1.24s.46,1.09.46,1.71h3.05c0-.89-.17-1.73-.5-2.51-.33-.78-.8-1.46-1.39-2.06s-1.29-1.06-2.07-1.39c-.78-.34-1.62-.51-2.51-.51s-1.73.17-2.5.51c-.78.34-1.46.8-2.06,1.4s-1.06,1.28-1.4,2.06c-.34.77-.51,1.61-.51,2.5,0,.45.07.87.21,1.26.14.39.33.75.56,1.09.23.34.49.66.76.96.12.14.24.26.36.39h-1.6v2.09h3.14c.02.06.05.12.06.17.16.36.16.68.02.98s-.39.54-.74.74c-.35.21-.74.36-1.18.47-.44.11-.88.16-1.3.16v3.05h12.39v-3.05h-6.62c.1-.08.2-.19.29-.34Z"/><path class="cls-2" d="m77.31,63.33c-.83-8.09-7.66-14.4-15.97-14.4h-29.63c-.14,0-.28.02-.43.02-.2,0-.4.02-.6.03-4.18.25-7.94,1.99-10.79,4.68,8.53,1.17,15.11,8.47,15.11,17.32,0,9.67-7.84,17.5-17.5,17.5-1.03,0-2.04-.11-3.02-.28v18.18c0,6.07,5.26,11.75,11.33,12.7.79.12,1.35.84,1.23,1.64v48.12c0,6.16,4.99,11.15,11.15,11.15h14.42c6.16,0,11.15-4.99,11.15-11.15v-18.27c-3.84-1.91-6.49-5.87-6.49-10.44v-30.2c0-5.09,3.28-9.42,7.83-11.01-3.33-3.82-5.36-8.82-5.36-14.27,0-10.57,7.58-19.39,17.58-21.33Z"/><path class="cls-2" d="m182.5,88.48c-9.66,0-17.5-7.83-17.5-17.5s7.84-17.5,17.5-17.5c.94,0,1.85.09,2.74.24-1.14-5.15-5.73-9.01-11.22-9.01h-43.16c-6.35,0-11.5,5.15-11.5,11.5v21.06c10.47.92,18.72,9.73,18.72,20.44,0,5.06-1.84,9.7-4.89,13.29,3.52,1.79,5.94,5.45,5.94,9.67v25.82c0,4.11-2.31,7.67-5.69,9.51v12.51c0,6.35,5.15,11.5,11.5,11.5h15c6.35,0,11.5-5.15,11.5-11.5v-48.34c0-.82.66-1.48,1.48-1.48h1.11c6.35,0,11.5-5.15,11.5-11.5v-18.98c-.98.17-1.99.28-3.02.28Z"/></svg>