<?xml version="1.0" encoding="UTF-8"?><svg id="Layer_1" xmlns="http://www.w3.org/2000/svg" viewBox="0 0 110 125"><defs><style>.cls-1{fill:#b03b5e;}.cls-1,.cls-2{stroke-width:0px;}.cls-2{fill:#fff;}</style></defs><path class="cls-1" d="m110,75v-10.87c-2.72,4.14-15.55,7.35-31.43,7.74,1.46,3.96,2.37,8.13,2.67,12.42,16.34-.76,28.76-4.63,28.76-9.28Z"/><path class="cls-1" d="m110,95.29v-10.87c-2.58,3.91-14.19,6.99-28.88,7.65-.44,4.38-1.5,8.62-3.15,12.62,17.92-.37,32.03-4.43,32.03-9.39Z"/><path class="cls-1" d="m62.28,124.31c4.02.44,8.42.69,13.02.69,19.16,0,34.7-4.22,34.7-9.42v-10.87c-2.91,4.42-17.34,7.78-34.7,7.78-.5,0-1,0-1.49,0-1.64,2.44-3.52,4.75-5.65,6.87-1.84,1.84-3.8,3.49-5.88,4.96Z"/><path class="cls-1" d="m0,88.4c0,20.21,16.39,36.6,36.6,36.6,20.21,0,36.6-16.39,36.6-36.6,0-20.21-16.39-36.6-36.6-36.6C16.39,51.8,0,68.19,0,88.4Z"/><path class="cls-2" d="m22.4,99.62c-1.21,0-2.32-.29-3.32-.88s-1.8-1.38-2.39-2.38c-.59-1-.89-2.1-.89-3.32h3.99c0,.46.12.89.35,1.29.23.39.54.71.94.95s.84.35,1.33.35.91-.12,1.31-.35c.4-.24.72-.55.96-.95.24-.4.36-.82.36-1.29,0-.64-.17-1.17-.52-1.59-.35-.42-.83-.74-1.46-.95-.63-.21-1.36-.32-2.2-.32v-3.05c1.12,0,2-.2,2.64-.6.65-.4.97-1,.97-1.79,0-.39-.1-.75-.29-1.08-.19-.32-.45-.58-.78-.78-.33-.2-.69-.3-1.08-.3s-.79.1-1.17.3c-.39.2-.7.46-.95.78-.25.32-.37.68-.37,1.08h-3.99c0-.85.17-1.64.52-2.38.35-.74.82-1.39,1.42-1.96.6-.56,1.29-1,2.06-1.32.77-.32,1.58-.48,2.43-.48,1.11,0,2.13.27,3.07.82.94.55,1.69,1.29,2.26,2.22.57.93.85,1.96.85,3.1,0,.72-.16,1.45-.48,2.18-.32.73-.79,1.26-1.41,1.57.54.2.99.55,1.35,1.03.36.49.64,1.04.82,1.66.19.62.28,1.24.28,1.84,0,1.2-.3,2.3-.9,3.3s-1.4,1.79-2.4,2.38c-1,.59-2.11.89-3.32.89Z"/><path class="cls-2" d="m37.94,99.62c-1.32,0-2.51-.32-3.58-.96-1.06-.64-1.91-1.49-2.53-2.56-.62-1.06-.93-2.23-.93-3.49h3.99c0,.56.14,1.07.41,1.52.27.46.64.82,1.11,1.09.46.27.97.41,1.53.41s1.05-.13,1.51-.41c.46-.27.82-.63,1.1-1.09.27-.46.41-.97.41-1.52s-.11-1.07-.34-1.55c-.23-.47-.61-.85-1.16-1.13-.55-.28-1.31-.43-2.27-.43h-5.29l2.21-10.49h10.09v3.99h-6.85l-.52,2.51,1.13.03c1.38.05,2.59.39,3.63,1.03s1.87,1.48,2.46,2.53c.6,1.05.9,2.22.9,3.51,0,.95-.18,1.85-.54,2.7s-.86,1.59-1.5,2.24-1.38,1.15-2.23,1.52c-.85.37-1.76.55-2.73.55Z"/><path class="cls-2" d="m57.73,99.24h-3.35l-2.24-3.85-1.29,1.53v2.32h-2.91v-15.82h2.91v8.98l3.1-3.7h3.8l-3.62,4.33,3.6,6.21Z"/><path class="cls-1" d="m75.3,45.29c-8.02,0-15.41.74-21.28,1.98,8.27,3.5,15.27,9.41,20.12,16.85.39,0,.77,0,1.16,0,19.16,0,34.7-4.22,34.7-9.42s-15.54-9.42-34.7-9.42Z"/></svg>