<?xml version="1.0" encoding="UTF-8"?><svg id="Layer_1" xmlns="http://www.w3.org/2000/svg" viewBox="0 0 110 125"><defs><style>.cls-1{fill:#b03b5e;}.cls-1,.cls-2{stroke-width:0px;}.cls-2{fill:#fff;}</style></defs><path class="cls-1" d="m62.28,124.31c4.02.44,8.42.69,13.02.69,19.16,0,34.7-4.22,34.7-9.42v-10.87c-2.91,4.42-17.34,7.78-34.7,7.78-.5,0-1,0-1.49,0-1.64,2.44-3.52,4.75-5.65,6.87-1.84,1.84-3.8,3.49-5.88,4.96Z"/><path class="cls-1" d="m0,88.4c0,20.21,16.39,36.6,36.6,36.6,20.21,0,36.6-16.39,36.6-36.6,0-20.21-16.39-36.6-36.6-36.6C16.39,51.8,0,68.19,0,88.4Z"/><path class="cls-2" d="m21.18,99.24v-16.24h-2.66l1.07-3.99h5.58v20.23h-3.99Z"/><path class="cls-2" d="m28.64,99.24v-3.55c.58-.41,1.28-.93,2.11-1.57s1.69-1.35,2.59-2.12,1.73-1.56,2.51-2.36c.78-.8,1.41-1.56,1.89-2.27.49-.71.73-1.32.73-1.83s-.13-1.02-.39-1.46-.61-.79-1.04-1.06c-.43-.26-.92-.39-1.44-.39s-1.01.13-1.45.39c-.44.26-.79.61-1.05,1.06-.27.44-.4.93-.4,1.46h-3.99c0-1.3.32-2.47.95-3.51.63-1.04,1.47-1.86,2.51-2.47,1.05-.61,2.19-.91,3.43-.91s2.41.31,3.45.92,1.87,1.45,2.49,2.49c.62,1.05.92,2.2.92,3.48,0,.66-.1,1.29-.3,1.91-.2.62-.48,1.23-.86,1.84-.38.61-.83,1.23-1.37,1.86s-1.14,1.29-1.81,1.96c-.67.68-1.39,1.39-2.16,2.15h6.55v3.99h-13.87Z"/><path class="cls-2" d="m55.3,99.24h-3.35l-2.24-3.85-1.29,1.53v2.32h-2.91v-15.82h2.91v8.98l3.1-3.7h3.8l-3.62,4.33,3.6,6.21Z"/><path class="cls-1" d="m81.47,85.99c.04.8.07,1.6.07,2.41,0,5.73-1.09,11.2-3.05,16.24,17.67-.44,31.51-4.47,31.51-9.38,0-4.63-12.31-8.48-28.53-9.27Z"/></svg>