<?xml version="1.0" encoding="UTF-8"?><svg id="Layer_1" xmlns="http://www.w3.org/2000/svg" viewBox="0 0 110 125"><defs><style>.cls-1{fill:#b03b5e;}.cls-1,.cls-2{stroke-width:0px;}.cls-2{fill:#fff;}</style></defs><path class="cls-1" d="m110,95.29v-10.87c-2.58,3.91-14.19,6.99-28.88,7.65-.44,4.38-1.5,8.62-3.15,12.62,17.92-.37,32.03-4.43,32.03-9.39Z"/><path class="cls-1" d="m62.28,124.31c4.02.44,8.42.69,13.02.69,19.16,0,34.7-4.22,34.7-9.42v-10.87c-2.91,4.42-17.34,7.78-34.7,7.78-.5,0-1,0-1.49,0-1.64,2.44-3.52,4.75-5.65,6.87-1.84,1.84-3.8,3.49-5.88,4.96Z"/><path class="cls-1" d="m0,88.4c0,20.21,16.39,36.6,36.6,36.6,20.21,0,36.6-16.39,36.6-36.6s-16.39-36.6-36.6-36.6C16.39,51.8,0,68.19,0,88.4Z"/><path class="cls-2" d="m15.19,99.24v-3.55c.58-.41,1.28-.93,2.11-1.57s1.69-1.35,2.59-2.12,1.73-1.56,2.51-2.36c.78-.8,1.41-1.56,1.89-2.27.49-.71.73-1.32.73-1.83s-.13-1.02-.39-1.46-.61-.79-1.04-1.06c-.43-.26-.92-.39-1.44-.39s-1.01.13-1.45.39c-.44.26-.79.61-1.05,1.06-.27.44-.4.93-.4,1.46h-3.99c0-1.3.32-2.47.95-3.51.63-1.04,1.47-1.86,2.51-2.47,1.05-.61,2.19-.91,3.43-.91s2.41.31,3.45.92,1.87,1.45,2.49,2.49c.62,1.05.92,2.2.92,3.48,0,.66-.1,1.29-.3,1.91-.2.62-.48,1.23-.86,1.84-.38.61-.83,1.23-1.37,1.86s-1.14,1.29-1.81,1.96c-.67.68-1.39,1.39-2.16,2.15h6.55v3.99h-13.87Z"/><path class="cls-2" d="m38.84,99.62c-1.32,0-2.51-.32-3.58-.96-1.06-.64-1.91-1.49-2.53-2.56-.62-1.06-.93-2.23-.93-3.49h3.99c0,.56.14,1.07.41,1.52.27.46.64.82,1.11,1.09.46.27.97.41,1.53.41s1.05-.13,1.51-.41c.46-.27.82-.63,1.1-1.09.27-.46.41-.97.41-1.52s-.11-1.07-.34-1.55c-.23-.47-.61-.85-1.16-1.13-.55-.28-1.31-.43-2.27-.43h-5.29l2.21-10.49h10.09v3.99h-6.85l-.52,2.51,1.13.03c1.38.05,2.59.39,3.63,1.03s1.87,1.48,2.46,2.53c.6,1.05.9,2.22.9,3.51,0,.95-.18,1.85-.54,2.7s-.86,1.59-1.5,2.24-1.38,1.15-2.23,1.52c-.85.37-1.76.55-2.73.55Z"/><path class="cls-2" d="m58.64,99.24h-3.35l-2.24-3.85-1.29,1.53v2.32h-2.91v-15.82h2.91v8.98l3.1-3.7h3.8l-3.62,4.33,3.6,6.21Z"/><path class="cls-1" d="m75.3,65.44c-.11,0-.22,0-.32,0,3.36,5.56,5.54,11.91,6.2,18.7,16.36-.76,28.82-4.62,28.82-9.28,0-5.2-15.54-9.42-34.7-9.42Z"/></svg>