<?xml version="1.0" encoding="UTF-8"?><svg id="Layer_1" xmlns="http://www.w3.org/2000/svg" viewBox="0 0 110 120"><defs><style>.cls-1{fill:#b03b5e;}.cls-1,.cls-2{stroke-width:0px;}.cls-2{fill:#fff;}</style></defs><path class="cls-1" d="m75.3,46.62c-4.45,0-8.7-.22-12.61-.62,1.93,1.4,3.76,2.95,5.47,4.67,2.58,2.58,4.81,5.42,6.66,8.47.16,0,.32,0,.48,0,19.16,0,34.7-4.22,34.7-9.42v-10.87c-2.91,4.42-17.34,7.78-34.7,7.78Z"/><path class="cls-1" d="m110,70v-10.87c-2.72,4.14-15.55,7.35-31.43,7.74,1.46,3.96,2.37,8.13,2.67,12.42,16.34-.76,28.76-4.63,28.76-9.28Z"/><path class="cls-1" d="m110,90.29v-10.87c-2.58,3.91-14.19,6.99-28.88,7.65-.44,4.38-1.5,8.62-3.15,12.62,17.92-.37,32.03-4.43,32.03-9.39Z"/><path class="cls-1" d="m62.28,119.31c4.02.44,8.42.69,13.02.69,19.16,0,34.7-4.22,34.7-9.42v-10.87c-2.91,4.42-17.34,7.78-34.7,7.78-.5,0-1,0-1.49,0-1.64,2.44-3.52,4.75-5.65,6.87-1.84,1.84-3.8,3.49-5.88,4.96Z"/><ellipse class="cls-1" cx="75.3" cy="9.42" rx="34.7" ry="9.42"/><path class="cls-1" d="m0,83.4c0,20.21,16.39,36.6,36.6,36.6,20.21,0,36.6-16.39,36.6-36.6,0-20.21-16.39-36.6-36.6-36.6C16.39,46.8,0,63.19,0,83.4Z"/><path class="cls-2" d="m12.41,94.24v-16.24h-2.66l1.07-3.99h5.58v20.23h-3.99Z"/><path class="cls-2" d="m27.5,94.62c-1.17,0-2.23-.27-3.19-.82-.96-.54-1.8-1.3-2.51-2.26-.71-.96-1.26-2.08-1.64-3.35-.39-1.27-.58-2.62-.58-4.07s.19-2.8.58-4.07c.38-1.27.93-2.38,1.64-3.34.71-.96,1.54-1.72,2.51-2.26.96-.54,2.03-.82,3.19-.82s2.23.27,3.19.82c.96.54,1.79,1.3,2.49,2.26.7.96,1.24,2.08,1.63,3.34.38,1.27.58,2.62.58,4.07s-.19,2.8-.58,4.07c-.39,1.27-.93,2.38-1.63,3.35s-1.53,1.72-2.49,2.26c-.96.54-2.03.82-3.19.82Zm0-3.99c.95,0,1.74-.31,2.36-.92.62-.62,1.07-1.42,1.37-2.41.29-.99.44-2.05.44-3.16,0-1.19-.16-2.27-.47-3.25-.31-.98-.78-1.77-1.39-2.36-.62-.59-1.38-.89-2.3-.89-.72,0-1.35.18-1.87.53-.53.36-.96.84-1.3,1.46s-.6,1.31-.77,2.09c-.17.78-.25,1.58-.25,2.42,0,1.12.15,2.17.46,3.16s.77,1.79,1.39,2.41c.62.62,1.4.93,2.35.93Z"/><path class="cls-2" d="m44.26,94.62c-1.17,0-2.23-.27-3.19-.82-.96-.54-1.8-1.3-2.51-2.26-.71-.96-1.26-2.08-1.64-3.35-.39-1.27-.58-2.62-.58-4.07s.19-2.8.58-4.07c.38-1.27.93-2.38,1.64-3.34.71-.96,1.54-1.72,2.51-2.26.96-.54,2.03-.82,3.19-.82s2.23.27,3.19.82c.96.54,1.79,1.3,2.49,2.26.7.96,1.24,2.08,1.63,3.34.38,1.27.58,2.62.58,4.07s-.19,2.8-.58,4.07c-.39,1.27-.93,2.38-1.63,3.35s-1.53,1.72-2.49,2.26c-.96.54-2.03.82-3.19.82Zm0-3.99c.95,0,1.74-.31,2.36-.92.62-.62,1.07-1.42,1.37-2.41.29-.99.44-2.05.44-3.16,0-1.19-.16-2.27-.47-3.25-.31-.98-.78-1.77-1.39-2.36-.62-.59-1.38-.89-2.3-.89-.72,0-1.35.18-1.87.53-.53.36-.96.84-1.3,1.46s-.6,1.31-.77,2.09c-.17.78-.25,1.58-.25,2.42,0,1.12.15,2.17.46,3.16s.77,1.79,1.39,2.41c.62.62,1.4.93,2.35.93Z"/><path class="cls-2" d="m64.07,94.24h-3.35l-2.24-3.85-1.29,1.53v2.32h-2.91v-15.82h2.91v8.98l3.1-3.7h3.8l-3.62,4.33,3.6,6.21Z"/><path class="cls-1" d="m87.91,25.91h0c-1.95.2-3.99.36-6.1.46,0,0-.01,0-.02,0-1.04.05-2.1.09-3.17.12-.02,0-.03,0-.05,0-1.08.03-2.17.04-3.28.04s-2.2-.01-3.28-.04c-.02,0-.03,0-.05,0-1.07-.03-2.13-.07-3.17-.12,0,0,0,0-.02,0-2.1-.11-4.14-.26-6.1-.46h0c-11.38-1.17-19.92-3.87-22.09-7.15v10.87c0,5.16,15.28,9.35,34.22,9.42,0,0,0,0,0,0,.16,0,.32,0,.48,0s.32,0,.48,0c0,0,0,0,0,0,18.94-.07,34.22-4.26,34.22-9.42v-10.87c-2.16,3.29-10.71,5.99-22.09,7.15Z"/></svg>