<?xml version="1.0" encoding="UTF-8"?><svg id="Layer_1" xmlns="http://www.w3.org/2000/svg" viewBox="0 0 200 180"><defs><style>.cls-1{fill:#4177be;stroke-width:0px;}</style></defs><path class="cls-1" d="m62.45,177.64c0,1.3-1.16,2.36-2.59,2.36h-1.28c-1.42,0-2.59-1.06-2.59-2.36v-64.76c0-1.3,1.16-2.36,2.59-2.36h1.28c1.42,0,2.59,1.06,2.59,2.36v64.76Z"/><path class="cls-1" d="m143.72,99.48l-3.89-11.23c-.91-2.63-2.69-6.82-3.96-9.31l-6.88-13.53c-1.26-2.49-3.75-6.28-5.52-8.43l-1.02-1.23c-1.77-2.15-5.39-4.63-8.04-5.5l-1.06-.35h-26.69l-1.06.35c-2.65.87-6.27,3.34-8.04,5.5l-1.02,1.23c-1.77,2.15-4.26,5.95-5.52,8.43l-6.88,13.53c-1.26,2.49-3.04,6.68-3.96,9.31l-3.89,11.23c-.91,2.63.43,5.7,2.99,6.82l.66.29c2.56,1.11,5.58-.06,6.71-2.6l3.33-7.46c1.14-2.55,3.17-6.29,4.52-8.32,1.35-2.03,2.94-4.34,3.53-5.14.6-.8,1.41-1.77,1.8-2.15.4-.38,1.1-.56,1.56-.39s.77.68.69,1.13c-.08.45-.41,2.25-.73,3.99-.32,1.74-1.14,5.38-1.83,8.08l-2.43,9.53c-.69,2.7-1.82,7.12-2.51,9.82l-4.95,19.32c-.69,2.7-1.38,5.93-1.53,7.17-.15,1.24,1.94,2.84,4.63,3.56l2.68.71c2.7.71,5.7,1.4,6.68,1.52.98.12,1.84,1.06,1.92,2.08.08,1.03.33,4.14.56,6.92l1.88,20.58c.23,2.78,2.7,5.05,5.49,5.05h16.12c2.79,0,5.26-2.27,5.49-5.05l1.88-20.58c.23-2.78.48-5.89.56-6.92.08-1.03.94-1.96,1.92-2.08.98-.12,3.98-.8,6.68-1.52l2.68-.71c2.7-.71,4.78-2.31,4.63-3.56-.15-1.24-.84-4.47-1.53-7.17l-4.95-19.32c-.69-2.7-1.82-7.12-2.51-9.82l-2.43-9.53c-.69-2.7-1.51-6.34-1.83-8.08-.32-1.74-.64-3.54-.73-3.99-.08-.45.23-.96.69-1.13s1.17,0,1.56.39c.4.38,1.21,1.35,1.8,2.15.6.8,2.18,3.11,3.53,5.14,1.35,2.03,3.38,5.77,4.52,8.32l3.33,7.46c1.14,2.55,4.16,3.72,6.71,2.6l.66-.29c2.56-1.11,3.9-4.18,2.99-6.82Z"/><circle class="cls-1" cx="100.01" cy="28.2" r="18.38"/></svg>