<?xml version="1.0" encoding="UTF-8"?><svg id="Layer_1" xmlns="http://www.w3.org/2000/svg" viewBox="0 0 200 180"><defs><style>.cls-1{fill:#4f7373;}.cls-1,.cls-2,.cls-3{stroke-width:0px;}.cls-2{fill:#4177be;}.cls-3{fill:#fff;}</style></defs><path class="cls-2" d="m107.39,41.16c11.37,0,20.58-9.21,20.58-20.58S118.75,0,107.39,0s-20.58,9.21-20.58,20.58,9.21,20.58,20.58,20.58Z"/><path class="cls-3" d="m77.03,53.48c-9.66,0-17.5,7.84-17.5,17.5s7.84,17.5,17.5,17.5,17.5-7.83,17.5-17.5-7.84-17.5-17.5-17.5h0Z"/><circle class="cls-1" cx="77.03" cy="70.98" r="15.5"/><path class="cls-3" d="m76.92,75.64c.09-.15.17-.32.24-.51s.1-.38.1-.58c0-.41-.06-.77-.15-1.1h3.39v-2.09h-4.7c-.12-.13-.23-.26-.36-.38-.31-.3-.61-.6-.88-.92-.27-.32-.5-.67-.67-1.05-.17-.38-.26-.83-.26-1.35,0-.62.15-1.2.46-1.71.31-.52.72-.93,1.24-1.24s1.09-.46,1.71-.46,1.2.15,1.72.46.94.72,1.24,1.24c.31.52.46,1.09.46,1.71h3.05c0-.89-.17-1.73-.5-2.51-.33-.78-.8-1.46-1.39-2.06-.6-.59-1.29-1.06-2.07-1.39-.78-.34-1.62-.51-2.51-.51s-1.73.17-2.5.51c-.77.34-1.46.8-2.06,1.4s-1.06,1.28-1.4,2.06c-.34.77-.51,1.61-.51,2.5,0,.45.07.87.21,1.26s.33.75.56,1.09c.23.34.49.66.76.96.12.14.24.26.36.39h-1.6v2.09h3.14c.02.06.05.12.06.17.16.36.16.68.02.98-.15.29-.39.54-.74.74-.35.21-.74.36-1.18.47-.44.11-.88.16-1.3.16v3.05h12.39v-3.05h-6.62c.1-.08.2-.19.29-.34Z"/><path class="cls-2" d="m140.23,53.89c-.92-4.49-4.46-8.03-8.95-8.95-.75-.15-1.52-.23-2.32-.23h-43.16c-.79,0-1.57.08-2.32.23-2.62.54-4.91,1.96-6.55,3.95-.23.28-.46.58-.66.89-.41.61-.77,1.27-1.06,1.95-.26.62-.46,1.27-.61,1.94.8-.11,1.61-.19,2.43-.19,9.66,0,17.5,7.84,17.5,17.5s-7.84,17.5-17.5,17.5c-.93,0-1.83-.09-2.72-.23v18.93c0,6.35,5.15,11.5,11.5,11.5h1.11c.82,0,1.48.66,1.48,1.48v48.34c0,5.16,3.4,9.53,8.08,10.98.36.11.73.21,1.1.28.75.15,1.52.23,2.32.23h15c.79,0,1.57-.08,2.32-.23.37-.08.74-.17,1.1-.28,4.68-1.46,8.08-5.82,8.08-10.98v-48.34c0-.82.66-1.48,1.48-1.48h1.11c6.35,0,11.5-5.15,11.5-11.5v-50.98c0-.79-.08-1.57-.23-2.32Z"/></svg>