<?xml version="1.0" encoding="UTF-8"?><svg id="Layer_1" xmlns="http://www.w3.org/2000/svg" viewBox="0 0 200 180"><defs><style>.cls-1{fill:#4177be;stroke-width:0px;}</style></defs><path class="cls-1" d="m120.36,41.16c11.37,0,20.58-9.21,20.58-20.58S131.73,0,120.36,0s-20.58,9.21-20.58,20.58,9.21,20.58,20.58,20.58Z"/><path class="cls-1" d="m62.1,83.21c8,0,14.49,6.49,14.49,14.49s-6.49,14.49-14.49,14.49-14.49-6.49-14.49-14.49,6.49-14.49,14.49-14.49m10.75,32.65c2.65,0,4.8,2.15,4.8,4.8v25.83c0,2.65-2.15,4.8-4.8,4.8h-1.95v23.92c0,2.65-2.15,4.8-4.8,4.8h-8.54c-2.65,0-4.8-2.15-4.8-4.8v-23.92h-1.42c-2.65,0-4.8-2.15-4.8-4.8v-25.83c0-2.65,2.15-4.8,4.8-4.8h21.49"/><path class="cls-1" d="m153.21,53.89c-.92-4.49-4.46-8.03-8.95-8.95-.75-.15-1.52-.23-2.32-.23h-43.16c-.79,0-1.57.08-2.32.23-2.62.54-4.91,1.96-6.55,3.95-.23.28-.46.58-.66.89-.41.61-.77,1.27-1.06,1.95-.58,1.38-.9,2.89-.9,4.48v50.98c0,6.35,5.15,11.5,11.5,11.5h1.11c.82,0,1.48.66,1.48,1.48v48.34c0,5.16,3.4,9.53,8.08,10.98.36.11.73.21,1.1.28.75.15,1.52.23,2.32.23h15c.79,0,1.57-.08,2.32-.23.37-.08.74-.17,1.1-.28,4.68-1.46,8.08-5.82,8.08-10.98v-48.34c0-.82.66-1.48,1.48-1.48h1.11c6.35,0,11.5-5.15,11.5-11.5v-50.98c0-.79-.08-1.57-.23-2.32Z"/></svg>