<?xml version="1.0" encoding="UTF-8"?><svg id="Layer_1" xmlns="http://www.w3.org/2000/svg" viewBox="0 0 200 180"><defs><style>.cls-1{fill:#4177be;stroke-width:0px;}</style></defs><path class="cls-1" d="m132.4,177.64c0,1.3,1.16,2.36,2.59,2.36h1.28c1.42,0,2.59-1.06,2.59-2.36v-64.15c0-1.3-1.16-2.36-2.59-2.36h-1.28c-1.42,0-2.59,1.06-2.59,2.36v64.15Z"/><path class="cls-1" d="m61.27,88.57c.4-4.18,1.58-11.51,2.62-16.27l1.6-7.35c1.04-4.77,3.83-10.61,6.21-12.99,2.38-2.38,8.25-5.06,13.04-5.96l3.74-.7,4.97,8.21,3.82,5.28,1.24.8,1.49.59,1.49-.5,1.2-.84,3.85-5.33,4.97-8.21,3.74.7c4.8.9,10.66,3.58,13.04,5.96,2.38,2.38,5.17,8.22,6.21,12.99l1.6,7.35c1.04,4.77,2.22,12.09,2.62,16.27.4,4.18.96,10.12,1.25,13.18.29,3.07-2.05,5.86-5.19,6.21-3.14.35-6.22-1.66-6.84-4.46-.62-2.8-1.46-7.96-1.85-11.47-.39-3.51-1.12-8.31-1.63-10.67-.5-2.36-1.29-5.08-1.74-6.04-.45-.96-1.29-1.72-1.85-1.69-.56.03-1.02.72-1.02,1.53,0,.81.02,4.73.04,8.69.02,3.97.04,11.21.06,16.09l.04,19.74-5.16,51.44c.01,4.88-3.84,8.87-8.56,8.87s-7.86,0-12.58,0-8.57-3.99-8.56-8.87l-5.16-51.44.04-19.74c.01-4.88.04-12.12.06-16.09.02-3.97.04-7.88.04-8.69,0-.81-.45-1.5-1.02-1.53-.56-.03-1.39.73-1.85,1.69-.45.96-1.24,3.68-1.74,6.04-.5,2.36-1.24,7.16-1.63,10.67-.39,3.51-1.22,8.67-1.85,11.47-.62,2.8-3.7,4.8-6.84,4.46-3.14-.35-5.48-3.14-5.19-6.21.29-3.07.85-9,1.25-13.18Z"/><circle class="cls-1" cx="99.61" cy="23.97" r="18.38"/></svg>