<?xml version="1.0" encoding="utf-8"?>
<!-- Generator: Adobe Illustrator 28.0.0, SVG Export Plug-In . SVG Version: 6.00 Build 0)  -->
<svg version="1.1" id="Layer_1" xmlns="http://www.w3.org/2000/svg" xmlns:xlink="http://www.w3.org/1999/xlink" x="0px" y="0px"
	 viewBox="0 0 479.3 92.6" style="enable-background:new 0 0 479.3 92.6;" xml:space="preserve">
<style type="text/css">
	.st0{fill:#AF3B5E;}
	.st1{fill-rule:evenodd;clip-rule:evenodd;fill:#AF3B5E;}
	.st2{fill:#FFFFFF;}
	.st3{fill:#4177BE;}
</style>
<g>
	<g>
		<path d="M94.4,28.8V5.7h7.8c1.1,0,2.1,0.2,3.1,0.7s1.6,1.1,2.2,2c0.5,0.9,0.8,1.9,0.8,3.2c0,0.7-0.1,1.4-0.4,2s-0.6,1.2-1,1.6
			c-0.4,0.4-0.8,0.7-1.3,0.9c0.7,0.2,1.3,0.5,1.8,0.9s0.9,0.9,1.2,1.5c0.3,0.6,0.6,1.2,0.7,1.9c0.1,0.6,0.2,1.3,0.2,1.9
			c0,1.3-0.3,2.4-0.9,3.4s-1.3,1.7-2.3,2.3c-0.9,0.5-2,0.8-3.2,0.8C103.1,28.8,94.4,28.8,94.4,28.8z M96.7,15.2h5.3
			c1.1,0,2-0.3,2.8-0.9c0.8-0.6,1.2-1.5,1.2-2.7c0-1.3-0.4-2.2-1.2-2.8c-0.8-0.6-1.7-0.9-2.8-0.9h-5.3V15.2z M96.7,26.8h6.3
			c0.8,0,1.5-0.2,2.2-0.6s1.2-1,1.6-1.7s0.6-1.5,0.6-2.5c0-0.8-0.2-1.6-0.6-2.3c-0.4-0.7-0.9-1.3-1.6-1.7c-0.7-0.4-1.4-0.7-2.2-0.7
			h-6.3V26.8z"/>
		<path d="M125.7,12.3h2.3v16.5h-2.3l-0.1-3.1c-0.5,1-1.3,1.9-2.3,2.5s-2.1,1-3.5,1c-1.2,0-2.3-0.2-3.4-0.7s-2-1.1-2.8-1.9
			s-1.4-1.7-1.9-2.8c-0.5-1.1-0.7-2.2-0.7-3.4c0-1.2,0.2-2.3,0.7-3.3c0.4-1,1.1-2,1.8-2.8c0.8-0.8,1.7-1.4,2.7-1.9
			c1-0.4,2.2-0.7,3.3-0.7c1.4,0,2.6,0.3,3.6,1s1.8,1.5,2.4,2.6L125.7,12.3z M119.8,27c1.2,0,2.2-0.3,3-0.9s1.5-1.4,2-2.3
			c0.5-1,0.7-2.1,0.7-3.2c0-1.2-0.2-2.3-0.7-3.3s-1.1-1.7-2-2.3c-0.8-0.6-1.9-0.9-3-0.9s-2.2,0.3-3.2,0.9c-1,0.6-1.7,1.4-2.3,2.3
			s-0.8,2.1-0.8,3.3c0,1.2,0.3,2.3,0.9,3.3s1.4,1.7,2.3,2.3C117.7,26.7,118.7,27,119.8,27z"/>
		<path d="M136.4,29.1c-0.9,0-1.8-0.2-2.6-0.5c-0.9-0.3-1.6-0.7-2.2-1.3c-0.6-0.5-1.1-1.1-1.4-1.8l2-0.9c0.2,0.4,0.5,0.8,1,1.2
			s1,0.6,1.6,0.9s1.2,0.3,1.8,0.3c0.7,0,1.3-0.1,1.9-0.3c0.6-0.2,1.1-0.5,1.4-0.9c0.4-0.4,0.6-0.9,0.6-1.5s-0.2-1.1-0.6-1.4
			c-0.4-0.3-0.9-0.6-1.5-0.8s-1.2-0.4-1.9-0.6c-1.2-0.3-2.2-0.7-3.1-1.1c-0.9-0.4-1.6-0.9-2.1-1.5s-0.8-1.4-0.8-2.3
			c0-1,0.3-1.9,0.8-2.6c0.6-0.7,1.3-1.3,2.2-1.7s1.9-0.6,2.9-0.6c1.3,0,2.6,0.3,3.7,0.9s1.9,1.4,2.4,2.3l-1.9,1.1
			c-0.2-0.5-0.5-0.8-0.9-1.2c-0.4-0.3-0.9-0.6-1.5-0.8c-0.5-0.2-1.1-0.3-1.7-0.3c-0.7,0-1.4,0.1-2,0.3s-1.1,0.5-1.5,0.9
			s-0.6,0.9-0.6,1.5s0.2,1.1,0.5,1.4c0.4,0.3,0.9,0.6,1.5,0.8s1.3,0.4,2.1,0.7c1,0.3,1.9,0.7,2.8,1.1c0.9,0.4,1.6,0.9,2.1,1.5
			s0.8,1.4,0.8,2.3c0,1-0.3,1.9-0.9,2.6c-0.6,0.7-1.4,1.3-2.3,1.7C138.5,29,137.5,29.2,136.4,29.1z"/>
		<path d="M146.5,9.4c-0.4,0-0.7-0.1-0.9-0.4s-0.4-0.6-0.4-0.9c0-0.4,0.1-0.7,0.4-0.9c0.3-0.2,0.6-0.4,0.9-0.4
			c0.4,0,0.7,0.1,0.9,0.4c0.3,0.2,0.4,0.6,0.4,0.9c0,0.4-0.1,0.7-0.4,0.9S146.9,9.4,146.5,9.4z M145.3,12.3h2.3v16.5h-2.3V12.3z"/>
		<path d="M163.2,24.7l2.1,1.1c-0.7,1-1.7,1.9-2.8,2.5s-2.4,0.9-3.7,0.9c-1.5,0-2.9-0.4-4.1-1.2c-1.2-0.8-2.2-1.8-3-3.1
			c-0.7-1.3-1.1-2.8-1.1-4.4c0-1.2,0.2-2.3,0.6-3.4c0.4-1.1,1-2,1.8-2.8s1.6-1.4,2.6-1.9s2.1-0.7,3.2-0.7c1.3,0,2.6,0.3,3.7,0.9
			s2.1,1.5,2.8,2.5l-2.1,1.1c-0.6-0.7-1.3-1.3-2.1-1.7s-1.6-0.6-2.5-0.6c-1.1,0-2.1,0.3-3,0.9c-0.9,0.6-1.6,1.4-2.1,2.3
			c-0.5,1-0.8,2-0.8,3.2s0.3,2.2,0.8,3.2s1.3,1.7,2.2,2.3c0.9,0.6,1.9,0.9,3,0.9c0.9,0,1.7-0.2,2.5-0.6
			C162,25.9,162.7,25.4,163.2,24.7z"/>
		<path d="M94.9,57.6V34.5h2.3v23.1H94.9z"/>
		<path d="M116,47.4v10.2h-2.3v-9.8c0-0.9-0.2-1.7-0.7-2.5s-1-1.3-1.8-1.8s-1.6-0.7-2.5-0.7s-1.7,0.2-2.5,0.7
			c-0.7,0.4-1.3,1-1.8,1.8c-0.4,0.7-0.7,1.6-0.7,2.5v9.8h-2.3V41.1h2.3v2.3c0.6-0.8,1.3-1.5,2.3-2c0.9-0.5,2-0.7,3.1-0.7
			c1.2,0,2.4,0.3,3.4,0.9c1,0.6,1.8,1.4,2.4,2.4C115.7,45,116,46.2,116,47.4z"/>
		<path d="M130.8,53.5l2.1,1.1c-0.7,1-1.7,1.9-2.8,2.5s-2.4,0.9-3.7,0.9c-1.5,0-2.9-0.4-4.1-1.2s-2.2-1.8-3-3.1
			c-0.7-1.3-1.1-2.8-1.1-4.4c0-1.2,0.2-2.3,0.6-3.4c0.4-1.1,1-2,1.8-2.8s1.6-1.4,2.6-1.9s2.1-0.7,3.2-0.7c1.3,0,2.6,0.3,3.7,0.9
			s2.1,1.5,2.8,2.5l-2.1,1.1c-0.6-0.7-1.3-1.3-2.1-1.7s-1.6-0.6-2.5-0.6c-1.1,0-2.1,0.3-3,0.9c-0.9,0.6-1.6,1.4-2.1,2.3
			c-0.5,1-0.8,2-0.8,3.2s0.3,2.2,0.8,3.2s1.3,1.7,2.2,2.3c0.9,0.6,1.9,0.9,3,0.9c0.9,0,1.7-0.2,2.5-0.6
			C129.6,54.7,130.3,54.2,130.8,53.5z"/>
		<path d="M142.9,58.1c-1.5,0-2.9-0.4-4.1-1.2c-1.2-0.8-2.2-1.8-3-3.1c-0.7-1.3-1.1-2.8-1.1-4.4c0-1.2,0.2-2.3,0.6-3.4
			c0.4-1.1,1-2,1.8-2.8s1.6-1.4,2.6-1.9s2.1-0.7,3.2-0.7c1.5,0,2.9,0.4,4.1,1.2c1.2,0.8,2.2,1.8,3,3.2c0.7,1.3,1.1,2.8,1.1,4.4
			c0,1.2-0.2,2.3-0.6,3.4c-0.4,1-1,2-1.8,2.8s-1.6,1.4-2.6,1.9C145.1,57.8,144,58.1,142.9,58.1z M142.9,55.8c1.1,0,2.1-0.3,3-0.9
			s1.6-1.4,2.1-2.3c0.5-1,0.8-2,0.8-3.2s-0.3-2.2-0.8-3.2s-1.2-1.8-2.1-2.3c-0.9-0.6-1.9-0.9-3-0.9s-2.1,0.3-3,0.9
			c-0.9,0.6-1.6,1.4-2.1,2.3c-0.5,1-0.8,2-0.8,3.2s0.3,2.3,0.8,3.2c0.5,1,1.3,1.7,2.2,2.3C140.8,55.5,141.8,55.8,142.9,55.8z"/>
		<path d="M153.9,57.6V41.1h2.3v2.3c0.6-0.8,1.4-1.5,2.3-2c0.9-0.5,1.9-0.7,3-0.7c1.2,0,2.4,0.3,3.4,0.9c1,0.6,1.8,1.4,2.4,2.4
			c0.6-1,1.4-1.8,2.4-2.4c1-0.6,2.2-0.9,3.4-0.9s2.4,0.3,3.4,0.9c1,0.6,1.8,1.4,2.4,2.4c0.6,1,0.9,2.2,0.9,3.4v10.2h-2.3v-9.7
			c0-0.9-0.2-1.7-0.6-2.4c-0.4-0.7-1-1.4-1.7-1.8c-0.7-0.5-1.5-0.7-2.4-0.7s-1.7,0.2-2.4,0.6c-0.7,0.4-1.3,1-1.7,1.7
			s-0.6,1.6-0.6,2.5v9.7h-2.3v-9.7c0-1-0.2-1.8-0.6-2.5c-0.4-0.7-1-1.3-1.7-1.7S162,43,161.1,43s-1.7,0.2-2.4,0.7s-1.3,1.1-1.7,1.8
			s-0.6,1.6-0.6,2.4v9.7C156.4,57.6,153.9,57.6,153.9,57.6z"/>
		<path d="M190.2,58.1c-1.5,0-2.9-0.4-4.1-1.2c-1.2-0.8-2.2-1.8-3-3.1c-0.7-1.3-1.1-2.8-1.1-4.4c0-1.2,0.2-2.3,0.6-3.4
			c0.4-1.1,1-2,1.8-2.8s1.6-1.4,2.6-1.9s2.1-0.7,3.2-0.7c1.2,0,2.3,0.2,3.4,0.7c1,0.5,1.9,1.2,2.7,2c0.7,0.9,1.3,1.9,1.7,3.1
			s0.5,2.4,0.5,3.8h-14c0.1,1,0.5,2,1,2.8s1.2,1.5,2,2s1.8,0.7,2.8,0.7c1.1,0,2.1-0.3,3-0.9c0.9-0.6,1.6-1.4,2.1-2.4l2.3,0.5
			c-0.7,1.5-1.7,2.7-3,3.6C193.3,57.6,191.8,58.1,190.2,58.1z M184.3,48.4H196c-0.1-1-0.4-2-0.9-2.8c-0.5-0.9-1.2-1.5-2.1-2
			c-0.9-0.5-1.8-0.8-2.8-0.8s-2,0.3-2.8,0.8s-1.5,1.2-2.1,2C184.8,46.4,184.4,47.4,184.3,48.4z"/>
		<path class="st0" d="M108,63.3h4v23.1h-4V76.1h-9.6v10.4h-4V63.3h4V72h9.6V63.3z"/>
		<path class="st0" d="M123,86.9c-1.5,0-2.9-0.4-4.1-1.2c-1.2-0.8-2.2-1.8-3-3.2c-0.7-1.3-1.1-2.8-1.1-4.4c0-1.2,0.2-2.3,0.6-3.4
			s1-2,1.8-2.8s1.6-1.4,2.6-1.9s2.1-0.7,3.2-0.7c1.3,0,2.5,0.3,3.5,0.8c1.1,0.5,2,1.3,2.7,2.2c0.7,0.9,1.3,2,1.6,3.2
			s0.4,2.5,0.2,3.8h-12.1c0.2,0.6,0.4,1.2,0.8,1.7s0.8,0.9,1.3,1.2c0.5,0.3,1.1,0.4,1.8,0.5c0.7,0,1.3-0.2,1.9-0.5s1.1-0.8,1.4-1.4
			l4.1,1c-0.7,1.5-1.7,2.7-3,3.6C126.1,86.4,124.6,86.9,123,86.9z M118.9,76.5h8.1c-0.1-0.7-0.4-1.3-0.8-1.8s-0.9-1-1.4-1.3
			c-0.6-0.3-1.2-0.5-1.8-0.5c-0.7,0-1.3,0.2-1.8,0.5s-1,0.7-1.4,1.3C119.3,75.3,119.1,75.9,118.9,76.5z"/>
		<path class="st0" d="M146.3,69.9h4v16.5h-4l-0.2-2c-0.5,0.7-1,1.3-1.8,1.8c-0.7,0.5-1.6,0.7-2.6,0.7c-1.2,0-2.4-0.2-3.4-0.7
			c-1.1-0.5-2-1.1-2.8-1.9s-1.4-1.8-1.9-2.8c-0.5-1.1-0.7-2.2-0.7-3.4c0-1.2,0.2-2.3,0.7-3.3c0.4-1,1-1.9,1.8-2.7
			c0.8-0.8,1.7-1.4,2.7-1.8s2.1-0.7,3.3-0.7c1.1,0,2.1,0.2,2.9,0.7c0.9,0.5,1.6,1.1,2.2,1.8L146.3,69.9z M141.6,83
			c0.9,0,1.6-0.2,2.3-0.6s1.2-1,1.6-1.7s0.6-1.5,0.6-2.4s-0.2-1.7-0.6-2.4s-0.9-1.3-1.6-1.7c-0.7-0.4-1.4-0.6-2.3-0.6
			s-1.6,0.2-2.3,0.7c-0.7,0.4-1.3,1-1.7,1.7s-0.6,1.5-0.6,2.4s0.2,1.7,0.6,2.4c0.4,0.7,1,1.3,1.7,1.7C140,82.8,140.8,83,141.6,83z"
			/>
		<path class="st0" d="M153.7,86.4V61.7h4v24.8L153.7,86.4L153.7,86.4z"/>
		<path class="st0" d="M170.5,74h-3.2v12.5h-4V74h-2.4v-4h2.4v-5.2h4V70h3.2V74z"/>
		<path class="st0" d="M188.6,76v10.4h-4V77c0-0.6-0.2-1.2-0.5-1.8c-0.3-0.5-0.7-1-1.3-1.3c-0.5-0.3-1.1-0.5-1.8-0.5
			c-0.6,0-1.2,0.2-1.8,0.5c-0.5,0.3-1,0.7-1.3,1.3c-0.3,0.5-0.5,1.1-0.5,1.8v9.4h-4V61.6h4v9.7c0.6-0.6,1.2-1.1,2-1.4
			s1.6-0.5,2.5-0.5c1.2,0,2.3,0.3,3.3,0.9s1.8,1.4,2.4,2.4C188.3,73.7,188.6,74.8,188.6,76z"/>
	</g>
	<g>
		<g>
			<circle class="st1" cx="24.7" cy="61.8" r="24.7"/>
		</g>
		<g>
			<path class="st2" d="M42.3,63.5H31.5l-1.9-3.4c-0.3-0.5-0.7-0.7-1.3-0.7c-0.5,0-1,0.4-1.2,0.9l-2.1,5l-2.3-6.2
				c-0.2-0.5-0.7-0.9-1.3-0.9c-0.6,0-1.1,0.3-1.3,0.8l-2,4.4h-11c-0.7,0-1.3,0.6-1.3,1.3S6.4,66,7.1,66h12.7l1.4-3.2l2.4,6.3
				c0.2,0.5,0.7,0.9,1.3,0.9l0,0c0.6,0,1.1-0.3,1.3-0.9l2.3-5.5l1.4,2.5h12.4c0.7,0,1.3-0.6,1.3-1.3S43,63.5,42.3,63.5z"/>
			<path class="st2" d="M8.1,61.9h2.8l-0.2-0.7c-0.9-2.5-0.8-4.9,0.2-7c1.2-2.3,3.6-3.8,6-3.8c5.1,0,6.7,4.3,6.7,4.5l0.1,0.2
				c0.2,0.5,0.6,0.8,1.2,0.8l0,0c0.5,0,1-0.3,1.2-0.8l0.1-0.2c0.1-0.2,1.7-4.5,6.7-4.5c2.4,0,4.8,1.5,6,3.8c1.1,2.1,1.1,4.6,0.1,7.2
				l-0.3,0.7h2.9l0.1-0.3c1-3.1,0.9-6.2-0.5-8.8c-1.7-3.2-4.9-5.2-8.4-5.2c-4.2,0-6.7,2.3-8,4c-1.3-1.7-3.8-4-8-4
				c-3.4,0-6.7,2.1-8.4,5.2C7.2,55.6,7,58.5,8,61.6L8.1,61.9z"/>
			<path class="st2" d="M34.9,67.7c-4.2,4.7-8.5,6.9-10,7.6c-1.5-0.6-5.8-2.8-10-7.6l-0.1-0.2h-3.5l0.7,0.8
				c5.8,7.2,12.3,9.5,12.5,9.6l0.5,0.2l0.5-0.2c0.3-0.1,6.7-2.4,12.5-9.6l0.7-0.8h-3.5L34.9,67.7z"/>
		</g>
	</g>
</g>
<path class="st3" d="M81.5,50.2L81.5,50.2c0-0.5-0.1-1-0.2-1.5s-0.3-0.8-0.4-1c-0.6-1.1-1.7-2.2-3.1-3.2c0.1-2.8,0.1-4.8,0-6.2l0,0
	c0-0.5-0.1-1-0.2-1.4c0-0.1,0-0.1,0-0.2c1-1.2,1.5-2.4,1.5-3.7c0-0.2,0-0.5,0-1c0.1-3.2,0.1-5.3,0-6.8l0,0c0-0.5-0.1-1-0.2-1.4
	c-0.1-0.2-0.1-0.4-0.2-0.6c1.1-1.2,1.7-2.5,1.7-3.9c0-0.2,0-0.5,0-1c0.1-3.2,0.1-5.3,0-6.8l0,0c0-0.5-0.1-1-0.2-1.4
	c-0.1-0.5-0.3-0.8-0.4-1C76.7,3.7,65.2,0,50.6,0c-14.8,0-26.5,3.8-29,9.1c-0.9,1-0.9,3.3-0.6,8.1c0,0.8,0.1,1.6,0.1,2
	c0,0.7,0.2,1.4,0.4,2c-0.5,0.5-0.9,1.1-1.2,1.7c-0.9,1-0.9,3.3-0.6,8.1c0,0.8,0.1,1.6,0.1,2c0,0.5,0.1,1.1,0.3,1.6
	c1.5-0.3,3-0.4,4.6-0.4c8.6,0,16.3,3.9,21.4,10.1c1.1,0,2.2,0.1,3.4,0.1c6.1,0,11.7-0.6,16.3-1.8l0,0c1.6-0.4,3.1-0.9,4.5-1.4
	c0.3-0.1,0.6-0.2,0.8-0.3c0.9-0.4,1.7-0.8,2.5-1.2c0.7-0.4,1.2-0.7,1.8-1.1c-0.1,0.9-0.7,1.9-1.8,2.8c-0.3,0.2-0.5,0.4-0.9,0.6
	c-0.5,0.3-1,0.7-1.7,1c-0.3,0.1-0.5,0.3-0.8,0.4c-0.1,0.1-0.3,0.1-0.4,0.2l0,0c-0.6,0.3-1.3,0.6-2.1,0.8c-0.6,0.2-1.2,0.4-1.9,0.6
	c-1.5,0.5-3.2,0.9-5,1.2c-3.7,0.7-7.9,1.1-12.6,1.1c1.9,3,3.2,6.4,3.8,10.1c5.1-0.2,9.8-0.9,13.6-2c0.9-0.3,1.8-0.5,2.6-0.8l0,0
	c1.1-0.4,2.1-0.8,3-1.2c1.4-0.7,2.5-1.4,3.5-2.1c1.2-1,2-2,2.5-3.1c0.1-0.2,0.2-0.5,0.2-0.7c1,0.9,1.6,1.9,1.6,2.8c0,1-0.6,2-1.8,3
	c-0.7,0.6-1.5,1.1-2.5,1.6c-0.2,0.1-0.4,0.2-0.6,0.3c-0.4,0.2-0.8,0.4-1.2,0.6c-0.4,0.2-0.9,0.4-1.3,0.5l0,0
	c-0.3,0.1-0.6,0.2-0.8,0.3l0,0c-0.1,0-0.2,0.1-0.4,0.1c-0.6,0.2-1.2,0.4-1.8,0.5c-0.3,0.1-0.7,0.2-1.1,0.3c-0.7,0.2-1.5,0.3-2.2,0.5
	c-3.8,0.8-8.2,1.2-13.1,1.2c0.1,0.9,0.1,1.7,0.1,2.6c0,6.7-2.4,12.8-6.3,17.6c0.5,0,1,0,1.5,0c11.5,0,21.1-2.3,26-5.8
	c1.1-0.8,1.9-1.6,2.5-2.5c0.1-0.2,0.2-0.3,0.3-0.5c1,0.9,1.5,1.8,1.5,2.8s-0.6,2-1.8,3c-0.7,0.6-1.5,1.1-2.5,1.6
	c-1.1,0.6-2.3,1.1-3.7,1.6c-0.5,0.2-1,0.3-1.5,0.5c-1,0.3-2.1,0.6-3.2,0.8c-1.1,0.2-2.3,0.5-3.5,0.7c-3.3,0.5-7,0.8-11,0.8
	c-2.5,0-4.9-0.1-7.2-0.3c-3.9,3.7-8.9,6.2-14.5,7c5.3,2.2,12.9,3.5,21.7,3.5c16.9,0,29.6-4.9,29.6-11.4c0-0.2,0-0.5,0-1
	c0.1-3.2,0.1-5.3,0-6.8l0,0c0-0.5-0.1-1-0.2-1.4c-0.1-0.5-0.3-0.8-0.4-1c-0.5-1-1.4-1.9-2.5-2.8v-0.1c0-0.2,0-0.5,0-1
	c0-1.1,0.1-2.1,0.1-3c2.7-1.7,4.3-3.8,4.3-6.1c0-0.2,0-0.5,0-1C81.6,53.9,81.6,51.7,81.5,50.2z M73.5,44.9L73.5,44.9v0.3v1.2l0,0
	v4.2l0,0c-0.7,0.5-1.6,1-2.5,1.5l0,0v-5.7l0,0v-0.8c0.3-0.1,0.5-0.2,0.8-0.4c0.4-0.2,0.8-0.4,1.1-0.6l0,0c0.2-0.1,0.4-0.2,0.6-0.4
	V44.9z M74.8,33.2v1v1.3l0,0v1.1l0,0v0.9l-0.1,0.1c-0.4,0.2-0.7,0.5-1.1,0.7s-0.8,0.4-1.2,0.6l0,0v-4.2l0,0v-0.4l0,0v-0.8v-1.1
	c0.3-0.1,0.6-0.3,0.8-0.4c0.6-0.3,1.2-0.6,1.7-1v2.2C74.9,33.2,74.8,33.2,74.8,33.2z M74.8,28.2c-0.7,0.6-1.5,1.1-2.5,1.6
	c-0.6,0.3-1.2,0.6-1.9,0.9c-1,0.4-2.1,0.8-3.3,1.2c-0.1,0-0.2,0-0.2,0.1l0,0c-0.6,0.2-1.2,0.3-1.8,0.5c-4.3,1.1-9.6,1.7-15.7,1.7
	c-7.6,0-14-1.1-18.8-2.6l0,0c-1.3-0.4-2.5-0.9-3.5-1.4c-3.2-1.5-5-3.3-5-5c0-0.6,0.3-1.3,0.7-1.9c2,2.1,5.6,3.9,10.2,5.2
	c2,0.5,4.2,1,6.6,1.3l0,0c3.4,0.5,7,0.7,11,0.7c2.9,0,5.7-0.2,8.4-0.4l0,0c2.4-0.2,4.6-0.6,6.7-1.1c2.5-0.5,4.7-1.2,6.6-2
	c0.9-0.4,1.7-0.8,2.5-1.2c0.6-0.4,1.2-0.7,1.8-1.1c0,0.1,0,0.2,0,0.3C76.6,26.2,76,27.2,74.8,28.2z M24.6,23.3v-1.1l0,0v-0.5l0,0
	v-0.6v-2.2v-1.8c0.5,0.3,1,0.7,1.6,1c0.3,0.2,0.6,0.3,0.9,0.5v1.7l0,0v0.5V22l0,0v3.1H27c-0.2-0.1-0.3-0.2-0.5-0.3
	c-0.3-0.2-0.6-0.3-0.8-0.5c-0.2-0.1-0.4-0.3-0.6-0.4C25,23.5,24.8,23.4,24.6,23.3z M30.3,26.3v-4.6l0,0v-1.2v-0.8
	c0.9,0.3,1.8,0.6,2.8,0.9c1.5,0.4,3,0.7,4.7,1v0.5l0,0v5.5v0.6c-0.6-0.1-1.2-0.2-1.8-0.3l0,0l0,0c-0.6-0.1-1.2-0.3-1.8-0.4
	c-0.2,0-0.4-0.1-0.6-0.2c-0.4-0.1-0.8-0.2-1.2-0.4c-0.2-0.1-0.4-0.1-0.6-0.2C31.2,26.6,30.7,26.4,30.3,26.3z M41.5,28.8v-1.6v-4.8
	l0,0v-0.2c1,0.1,2.1,0.2,3.1,0.3v0.1l0,0V27v2.1c-0.5,0-1-0.1-1.5-0.1S42.1,28.9,41.5,28.8C41.6,28.8,41.6,28.8,41.5,28.8z
	 M73.5,25.2L73.5,25.2v-3.6l0,0v-0.4l0,0v-0.8v-1.7c0.1,0,0.2-0.1,0.3-0.1c0.8-0.4,1.6-0.8,2.2-1.2v2.7v1v1.3l0,0v1.1l0,0v0.3l0,0
	c-0.4,0.3-0.8,0.5-1.3,0.8C74.4,24.8,74,25,73.5,25.2z M76,14.4c-0.5,0.4-1.1,0.8-1.8,1.2c-0.2,0.1-0.5,0.3-0.7,0.4c0,0,0,0-0.1,0
	c-0.8,0.4-1.6,0.8-2.6,1.1c-0.2,0.1-0.4,0.2-0.6,0.2c-0.6,0.2-1.2,0.4-1.9,0.6c-0.4,0.1-0.8,0.2-1.3,0.4l0,0
	c-0.3,0.1-0.5,0.1-0.8,0.2c-4.3,1.1-9.6,1.7-15.7,1.7c-2.1,0-4.1-0.1-5.9-0.2c-1.1-0.1-2.1-0.2-3.1-0.3c-1.3-0.2-2.6-0.4-3.8-0.6
	c-1.8-0.3-3.4-0.7-4.9-1.2l0,0c-1-0.3-1.8-0.6-2.7-0.9c-0.4-0.1-0.7-0.3-1.1-0.5c-0.7-0.3-1.4-0.7-2-1c-1.1-0.6-1.9-1.2-2.5-1.9
	c-0.8-0.8-1.2-1.7-1.2-2.5s0.4-1.7,1.2-2.5l0,0c0.1-0.1,0.2-0.2,0.3-0.3l0,0l0,0c0.6-0.6,1.4-1.1,2.4-1.7l0,0C31.8,4,40.2,2,50.6,2
	C60.3,2,68.3,3.7,73,6.1l0,0c1,0.5,1.8,1,2.5,1.5l0,0l0,0C75.7,7.7,75.8,7.8,76,8l0,0c1.2,1,1.8,2,1.8,3
	C77.8,12.4,77.2,13.4,76,14.4z M72.9,68.4L72.9,68.4L72.9,68.4v1.2l0,0v3c-0.7,0.5-1.6,1-2.5,1.5v-4.4l0,0v-1.2v-0.9
	c0.1,0,0.2-0.1,0.3-0.1l0,0c0.8-0.4,1.6-0.8,2.2-1.2V68.4z M76,85.8L76,85.8c-0.7,0.5-1.6,1-2.5,1.5l0,0v-6.5
	c0.9-0.4,1.8-0.9,2.5-1.4V85.8z M77.3,62.6L77.3,62.6L77.3,62.6c-0.5,0.4-0.9,0.6-1.3,0.8l0,0l0,0c-0.4,0.2-0.8,0.4-1.2,0.6l0,0
	v-6.2l0,0v-0.3c0.3-0.2,0.7-0.3,1-0.5c0.1,0,0.1-0.1,0.2-0.1c0.5-0.3,0.9-0.5,1.4-0.8L77.3,62.6L77.3,62.6z"/>
<g>
	<path d="M462.8,10.5c-1.3,0-2.3,1-2.3,2.3s1.1,2.3,2.3,2.3c1.3,0,2.3-1,2.3-2.3C465.1,11.5,464,10.5,462.8,10.5z"/>
	<g>
		<path d="M329.8,22.7c0-1.8,0-3.7-0.1-5.5h0.1c1.2,1.7,2.3,3.3,3.6,4.9l5.7,7.7h3.9v-19h-4v7.1c0,1.8,0,3.7,0.1,5.5H339
			c-1.2-1.7-2.3-3.3-3.6-4.9l-5.7-7.7h-3.9v19h4V22.7z"/>
		<path d="M351.9,30.1c4.1,0,7.2-2.9,7.2-6.7s-3.1-6.7-7.2-6.7s-7.2,2.9-7.2,6.7C344.7,27.1,347.7,30.1,351.9,30.1z M351.9,20
			c1.8,0,3.2,1.5,3.2,3.3s-1.4,3.3-3.2,3.3s-3.2-1.5-3.2-3.3C348.7,21.5,350,20,351.9,20z"/>
		<path d="M364.7,22c0.9-1.1,2.1-1.5,3.5-1.5c0.4,0,0.8,0.1,1.1,0.1v-3.8c-0.3-0.1-0.6-0.1-0.8-0.1c-1.6,0-2.9,0.7-3.8,1.9h-0.1
			v-1.7h-3.9v12.9h4L364.7,22L364.7,22z"/>
		<path d="M373.2,24.9c0,2,0.4,3.1,1.1,3.9c0.8,0.9,2,1.3,3.4,1.3c1.1,0,2.3-0.3,2.9-0.7v-3.2c-0.5,0.3-1.3,0.5-1.9,0.5
			c-1.2,0-1.5-0.9-1.5-2.2v-4.3h3.4v-3.3h-3.4v-4l-4,0.7V17h-2.1v3.3h2.1V24.9z"/>
		<path d="M386.5,21.1c0.7-0.6,1.7-1.1,2.7-1.1c0.6,0,1,0.2,1.4,0.6c0.3,0.4,0.4,0.8,0.4,1.8v7.4h4v-8.1c0-1.9-0.3-3-1.1-3.8
			c-0.8-0.8-2-1.3-3.4-1.3c-1.6,0-3,0.7-3.9,1.5h-0.1V9.7h-4v20.1h4V21.1z"/>
		<path d="M401.7,30.1c1.7,0,2.9-0.7,3.9-1.5h0.1v1.2h3.9V16.9h-4v8.6c-0.6,0.6-1.6,1.2-2.6,1.2c-0.6,0-1.1-0.2-1.4-0.6
			s-0.5-0.9-0.5-1.9v-7.4h-4v8c0,1.9,0.4,3.1,1.2,4C399.1,29.5,400.2,30.1,401.7,30.1z"/>
		<path d="M416.2,21.1c0.7-0.6,1.6-1.1,2.5-1.1c0.5,0,1,0.2,1.4,0.6c0.3,0.4,0.5,0.9,0.5,1.8v7.5h4v-8.1c0-0.2,0-0.4,0-0.6
			c0.7-0.6,1.6-1.1,2.5-1.1c0.5,0,1,0.2,1.4,0.6c0.3,0.3,0.5,0.8,0.5,1.8V30h4v-8.1c0-1.8-0.4-3-1.2-3.8c-0.8-0.8-1.9-1.3-3.3-1.3
			c-1.6,0-3.2,0.6-4.5,1.8c-0.8-1.3-2.4-1.8-3.8-1.8c-1.6,0-2.9,0.6-3.9,1.5h-0.1v-1.2h-3.9V30h4v-8.9H416.2z"/>
		<path d="M441.6,30.1c4,0,7-2.9,7-7c0-4-2.9-6.5-6.1-6.5c-1.2,0-2.4,0.4-3.2,0.9h-0.1V9.7h-4v20.2l3.1-0.5
			C439.3,29.8,440.4,30.1,441.6,30.1z M439.3,20.5c0.6-0.3,1.3-0.6,2.2-0.6c2,0,3.1,1.5,3.1,3.4s-1.1,3.6-3.3,3.6
			c-0.7,0-1.5-0.2-2-0.5L439.3,20.5L439.3,20.5z"/>
		<path d="M454.2,18.6L454.2,18.6l-0.1-1.8h-3.9v12.9h4V22c0.9-1.1,2.1-1.5,3.5-1.5c0.4,0,0.8,0.1,1.1,0.1v-3.8
			c-0.3-0.1-0.6-0.1-0.8-0.1C456.4,16.7,455.1,17.4,454.2,18.6z"/>
		<rect x="460.8" y="16.9" width="4" height="12.9"/>
		<path d="M478.6,26.8c-0.6,0-0.8-0.4-0.8-1v-4.4c0-1.6-0.5-2.8-1.4-3.6c-1-0.8-2.6-1.2-4.3-1.2c-1.9,0-3.5,0.5-4.5,1V21
			c1-0.6,2.3-1,3.8-1c0.9,0,1.6,0.2,2,0.6c0.3,0.3,0.5,0.7,0.5,1.4v0.5c-0.7-0.2-1.5-0.2-2.2-0.2c-1.3,0-2.6,0.2-3.6,0.9
			c-0.9,0.6-1.6,1.7-1.6,3.1c0,1.3,0.6,2.4,1.5,3c0.8,0.6,1.9,0.8,3,0.8c1.5,0,2.8-0.5,3.6-1.1h0.1c0.7,0.7,1.7,1,2.8,1
			c0.8,0,1.5-0.2,1.9-0.4v-3C479.1,26.7,478.8,26.8,478.6,26.8z M473.8,26.6c-0.5,0.3-1.1,0.5-1.8,0.5c-0.9,0-1.7-0.4-1.7-1.3
			c0-1,1-1.3,2-1.3c0.4,0,1,0.1,1.4,0.2v1.9C473.7,26.6,473.8,26.6,473.8,26.6z"/>
		<g>
			<path d="M342.4,37.1h-4v9.8c0,2-0.2,3.3-0.8,4.2c-0.6,1-1.7,1.6-3.4,1.6c-1.8,0-2.9-0.7-3.5-1.7c-0.6-0.9-0.7-2.1-0.7-4.1v-9.7
				h-4.2V47c0,2.7,0.4,4.8,1.4,6.3c1.3,2,3.8,3.1,6.9,3.1c3,0,5.5-1.1,6.8-3c1.1-1.5,1.5-3.6,1.5-6.5L342.4,37.1L342.4,37.1z"/>
			<path d="M353.4,56h4v-8c0-1.9-0.3-3-1.1-3.8c-0.8-0.8-2-1.3-3.4-1.3c-1.6,0-3,0.7-4,1.5h-0.1v-1.2h-3.9V56h4v-8.7
				c0.7-0.6,1.7-1.1,2.7-1.1c0.6,0,1,0.2,1.4,0.6c0.3,0.4,0.4,0.8,0.4,1.8V56z"/>
			<rect x="359.9" y="43.1" width="4" height="12.9"/>
			<path d="M361.8,41.3c1.3,0,2.3-1,2.3-2.3s-1.1-2.3-2.3-2.3c-1.3,0-2.3,1-2.3,2.3S360.6,41.3,361.8,41.3z"/>
			<path d="M374.7,56l5.3-12.9h-4l-1.6,4.1c-0.5,1.3-1.1,2.8-1.5,4.1h-0.1c-0.4-1.3-0.9-2.7-1.4-4.1l-1.5-4.1h-4.2L371,56H374.7z"/>
			<path d="M392.2,51.8c-1.4,0.9-2.9,1.4-4.4,1.4c-1.8,0-3.3-0.8-3.8-2.6h8.8c0.1-0.3,0.1-0.9,0.1-1.4c0-4.3-3-6.4-6.2-6.4
				c-3.6,0-6.8,2.7-6.8,6.8c0,4,3.1,6.7,7.3,6.7c1.7,0,3.6-0.4,4.9-1.2v-3.3H392.2z M386.7,45.9c1.3,0,2.3,0.8,2.5,2.2H384
				C384.4,46.6,385.5,45.9,386.7,45.9z"/>
			<path d="M403.6,43.1c-0.3-0.1-0.6-0.1-0.8-0.1c-1.6,0-2.9,0.7-3.8,1.9h-0.1v-1.7H395V56h4v-7.8c0.9-1.1,2.1-1.5,3.5-1.5
				c0.4,0,0.8,0.1,1.1,0.1V43.1L403.6,43.1z"/>
			<path d="M409,50.9c1.9,0.5,3.4,0.4,3.4,1.4c0,0.7-0.7,1-1.8,1c-1.2,0-3.3-0.4-5.1-1.5v3.5c1.5,0.8,3.5,1.1,5.1,1.1
				c3.3,0,5.8-1.5,5.8-4.4c0-2.2-1.5-3.2-4-3.8c-1.9-0.5-3.3-0.4-3.3-1.3c0-0.6,0.6-0.9,1.7-0.9c1.2,0,3.2,0.4,4.9,1.4V44
				c-1.5-0.7-3.4-1-4.9-1c-3.2,0-5.6,1.5-5.6,4.3C405.1,49.2,406.6,50.3,409,50.9z"/>
			<rect x="418.6" y="43.1" width="4" height="12.9"/>
			<path d="M420.6,41.3c1.3,0,2.3-1,2.3-2.3s-1.1-2.3-2.3-2.3c-1.3,0-2.3,1-2.3,2.3C418.3,40.3,419.3,41.3,420.6,41.3z"/>
			<path d="M434.1,55.6v-3.2c-0.5,0.3-1.3,0.5-1.9,0.5c-1.2,0-1.5-0.9-1.5-2.2v-4.3h3.4v-3.3h-3.4v-4l-4,0.7v3.4h-2.1v3.3h2.1v4.8
				c0,2,0.4,3.1,1.1,3.9c0.8,0.9,2,1.3,3.4,1.3C432.3,56.3,433.4,56,434.1,55.6z"/>
			<path d="M437,61.8h4.1l8.4-18.7h-4l-1.4,3.1c-0.6,1.4-1.2,2.8-1.8,4.2h-0.1c-0.5-1.3-1.1-2.7-1.7-4.1l-1.3-3.2H435l5.3,11.5
				L437,61.8z"/>
			<path d="M336.7,74c0,1.5,0,2.9,0,4.3l0,0c-0.8-1.1-1.6-2.2-2.5-3.4l-5.1-6.8h-2.3v14.1h2.4v-5.9c0-1.5,0-2.9,0-4.3l0,0
				c0.8,1.1,1.6,2.2,2.5,3.4l5.1,6.8h2.3V68.1h-2.4V74z"/>
			<polygon points="344.8,75.9 349.9,75.9 349.9,73.8 344.8,73.8 344.8,70.3 350.7,70.3 350.7,68.1 342.3,68.1 342.3,82.2 
				350.9,82.2 350.9,80 344.8,80 			"/>
			<path d="M368.2,74.9c-0.4,1.2-0.7,2.5-1.1,3.7l0,0c-0.3-1.2-0.7-2.3-1.1-3.7l-2.1-6.8H362l-2.1,6.8c-0.4,1.2-0.8,2.5-1.1,3.7l0,0
				c-0.3-1.2-0.7-2.5-1.1-3.7l-2.1-6.8H353l4.3,14.1h2.6l1.9-6.1c0.3-1.1,0.7-2.3,1-3.3l0,0c0.3,1.1,0.7,2.2,1,3.4l1.9,6h2.6
				l4.3-14.1h-2.5L368.2,74.9z"/>
			<path d="M376.2,75.1c0-2.9,2.1-5,5-5c1.5,0,2.9,0.5,3.9,1.3v-2.6c-1.1-0.6-2.5-0.9-3.9-0.9c-4.5,0-7.5,3.2-7.5,7.3
				c0,4.1,3.1,7.2,7.5,7.2c1.4,0,3-0.3,4.1-1v-2.6c-1.1,0.9-2.5,1.4-4,1.4C378.3,80.1,376.2,77.9,376.2,75.1z"/>
			<path d="M393.4,68.1l-5.8,14.1h2.5l1.4-3.4h6.1l1.3,3.4h2.6l-5.7-14.1H393.4z M396.8,76.7h-4.5l0.8-2.1c0.5-1.3,0.9-2.5,1.4-3.8
				l0,0c0.4,1.3,0.9,2.5,1.4,3.8L396.8,76.7z"/>
			<path d="M408.9,74c-1.7-0.5-3.2-0.7-3.2-2.2c0-1.2,0.9-1.7,2.3-1.7c1.1,0,2.8,0.4,4.2,1.3v-2.5c-1.2-0.7-2.8-1-4.2-1
				c-2.8,0-4.7,1.5-4.7,4.1c0,2.5,1.8,3.4,3.8,4c1.8,0.5,3.3,0.8,3.3,2.3c0,1.3-1,1.9-2.4,1.9c-1.2,0-3-0.4-4.4-1.5v2.6
				c1.3,0.7,3,1.1,4.3,1.1c2.9,0,4.9-1.6,4.9-4.2C412.9,75.6,411,74.6,408.9,74z"/>
			<polygon points="414.7,70.3 419.3,70.3 419.3,82.2 421.7,82.2 421.7,70.3 426.4,70.3 426.4,68.1 414.7,68.1 			"/>
			<polygon points="431.8,68.1 429.3,68.1 429.3,82.2 438.1,82.2 438.1,80 431.8,80 			"/>
			<polygon points="443.2,75.9 448.4,75.9 448.4,73.8 443.2,73.8 443.2,70.3 449.1,70.3 449.1,68.1 440.7,68.1 440.7,82.2 
				449.3,82.2 449.3,80 443.2,80 			"/>
		</g>
		<g>
			<path d="M280.2,82.2L280.2,82.2L280.2,82.2z"/>
			<rect x="264.8" y="19.9" width="1.3" height="2.9"/>
			<rect x="256.4" y="24.2" width="1.3" height="2.9"/>
			<rect x="294.1" y="19.9" width="1.3" height="2.9"/>
			<rect x="273.2" y="24.2" width="1.3" height="2.9"/>
			<rect x="285.7" y="24.2" width="1.3" height="2.9"/>
			<rect x="302.5" y="24.2" width="1.3" height="2.9"/>
			<path d="M250.3,10.8c0,0,0,20,0,27.6c0,3,0.2,8.1,2.2,14.1c1.1-0.7,2.1-1.4,3.2-2l-2-4l1.1-0.6l0,0c1.5-0.8,3.1-1.6,4.7-2.3l0,0
				l1.1-0.5l1.5,4.3c1.2-0.5,2.3-0.9,3.5-1.3l-1.2-4.4l1.1-0.3c1.7-0.5,3.4-0.9,5.1-1.2l1.2-0.2l0.7,4.5c1.3-0.2,2.6-0.4,4-0.5
				l-0.3-4.6l1.2-0.1c0.9,0,1.8-0.1,2.6-0.1l0,0l0,0l0,0l0,0c0.9,0,1.8,0,2.6,0.1l1.2,0.1l-0.3,4.6c1.3,0.1,2.7,0.2,4,0.5l0.7-4.5
				l1.2,0.2c1.7,0.3,3.4,0.7,5.1,1.2l1.1,0.3l-1.2,4.4c1.2,0.4,2.4,0.8,3.5,1.3l1.5-4.3l1.1,0.5c1.6,0.7,3.2,1.5,4.7,2.3l1.1,0.6
				l-2,4c1.1,0.6,2.2,1.3,3.2,2c2-6,2.2-11.1,2.2-14.1c0-7.6,0-27.6,0-27.6L250.3,10.8z M262.1,14.3h1.4v1.4h1.3v-1.4h1.4v1.4h1.3
				v-1.4h1.4v3.2h-6.8L262.1,14.3L262.1,14.3z M267.5,18.6v5.6h-4v-5.6H267.5z M259.9,35.7h-5.7v-3h5.7V35.7z M259.8,31.6h-5.5
				L255,30v-7.1h4V30L259.8,31.6z M260.5,21.8h-6.8v-3.2h1.4V20h1.3v-1.4h1.4V20h1.3v-1.4h1.4L260.5,21.8z M269.6,31.6v4.1h-2.2
				c0,0,0-4.4,0-5.1c0-1.3-2-2-2-2s-2,0.7-2,2c0,0.6,0,5.1,0,5.1h-2.2v-4l0,0l-0.8-1.8l0,0V25h1.6v1.3h1.3V25h1.3v1.3h1.3V25h1.3
				v1.3h1.3V25h1.6v4.9l0,0L269.6,31.6z M276.7,35.7H271v-3h5.7V35.7z M276.6,31.6h-5.5l0.7-1.6v-7.1h4V30L276.6,31.6z M270.5,21.8
				v-3.2h1.4V20h1.3v-1.4h1.4V20h1.3v-1.4h1.4v3.2C277.3,21.8,270.5,21.8,270.5,21.8z M291.4,14.3h1.4v1.4h1.3v-1.4h1.4v1.4h1.3
				v-1.4h1.4v3.2h-6.8L291.4,14.3L291.4,14.3z M296.8,18.6v5.6h-4v-5.6H296.8z M289.2,35.7h-5.7v-3h5.7V35.7z M289.1,31.6h-5.5
				l0.7-1.6v-7.1h4V30L289.1,31.6z M289.8,21.8H283v-3.2h1.4V20h1.3v-1.4h1.4V20h1.3v-1.4h1.4L289.8,21.8z M298.9,31.6v4.1h-2.2
				c0,0,0-4.4,0-5.1c0-1.3-2-2-2-2s-2,0.7-2,2c0,0.6,0,5.1,0,5.1h-2.2v-4l0,0l-0.8-1.8l0,0V25h1.6v1.3h1.3V25h1.3v1.3h1.3V25h1.3
				v1.3h1.3V25h1.6v4.9l0,0L298.9,31.6z M306,35.7h-5.7v-3h5.7V35.7z M305.9,31.6h-5.5l0.7-1.6v-7.1h4V30L305.9,31.6z M299.8,21.8
				v-3.2h1.4V20h1.3v-1.4h1.4V20h1.3v-1.4h1.4v3.2C306.6,21.8,299.8,21.8,299.8,21.8z"/>
			<path d="M290.5,52c-1.8,0.5-2.7,0-4.7,0c-2.2,0-3.8,0.3-5.7,1.4l0,0c-1.8-1.1-3.5-1.4-5.7-1.4c-2,0-2.9,0.5-4.7,0l-1.7,1.4
				L267.5,67c2.3,0.2,5-0.1,6.5-0.1s4.7,0.1,6.1,1.9l0,0c1.5-1.8,4.6-1.9,6.1-1.9s4.3,0.3,6.5,0.1l-0.5-13.6L290.5,52z M279.4,65.6
				c-2.6-1.3-5.8-0.5-8.4-1.2l0.1-4.4c0,0,0.1-5.2,0.2-6.4c0.1,0,0.1,0,0.2,0c0.6,0,1.1-0.1,1.6-0.2c1.2-0.2,3-0.3,3.9-0.1
				c1.2,0.3,2,0.7,2.4,1L279.4,65.6L279.4,65.6z M280.9,65.6V54.4c0.4-0.3,1.2-0.7,2.4-1c1-0.2,2.8-0.1,3.9,0.1
				c0.6,0.1,1.1,0.2,1.6,0.2c0.1,0,0.1,0,0.2,0c0,1.2,0.2,6.4,0.2,6.4l0.1,4.4C286.7,65.1,283.5,64.2,280.9,65.6z"/>
			<path d="M305,46.9c-1.2-0.6-2.4-1.3-3.6-1.8c-0.3-0.1-0.7-0.3-1-0.4l-1.5,4.1c-1.8-0.8-3.8-1.5-5.7-2l1.1-4.2
				c-1.6-0.5-3.3-0.9-4.9-1.2l-0.7,4.3c-2-0.4-4.1-0.6-6.2-0.7l0.2-4.4c-0.9,0-1.7-0.1-2.6-0.1s-1.7,0-2.6,0.1l0.2,4.4
				c-2.1,0.1-4.2,0.3-6.2,0.7l-0.7-4.3c-1.7,0.3-3.3,0.7-4.9,1.2l1.1,4.2c-2,0.6-3.9,1.2-5.7,2l-1.5-4.1c-0.3,0.1-0.7,0.3-1,0.4
				c-1.2,0.6-2.4,1.2-3.6,1.8l1.9,3.9c-1.5,0.8-3,1.7-4.4,2.7c3.3,8.9,10.7,19.7,27.3,28.7c16.7-9,24.1-19.7,27.3-28.7
				c-1.4-1-2.9-1.9-4.4-2.7L305,46.9z M292.9,68.4c-1.6,0.1-3.4,0.1-4.8,0c-0.7,0-1.3-0.1-1.8-0.1c-2.4,0-4,0.4-4.9,1.2
				c-0.1,0.1-0.2,0.2-0.3,0.3h-2c-0.1-0.1-0.2-0.2-0.3-0.3c-0.8-0.8-2.4-1.2-4.9-1.2c-0.5,0-1.1,0-1.8,0.1c-1.4,0.1-3.2,0.1-4.8,0
				l-1.3-0.1l0.6-15.6l2.8-2.3l0.7,0.2c0.9,0.2,1.4,0.2,2.3,0.1c0.6-0.1,1.2-0.1,2-0.1c2,0,3.7,0.2,5.7,1.2l0,0l0,0l0,0
				c1.9-1,3.7-1.2,5.7-1.2c0.8,0,1.4,0.1,2,0.1c0.9,0.1,1.4,0.2,2.3-0.1l0.7-0.2l2.8,2.3l0.6,15.6L292.9,68.4z"/>
		</g>
	</g>
</g>
<polygon points="232,86.4 230.8,86.4 216.7,5.7 217.8,5.7 "/>
</svg>
